<svg width="37" height="32" viewBox="0 0 37 32" fill="none" xmlns="http://www.w3.org/2000/svg">
<path d="M32.0357 23.6031L19.5386 8.4125C19.0849 7.8625 18.1563 7.8625 17.7062 8.4125L5.20546 23.6031C5.1747 23.6405 5.15627 23.6846 5.15222 23.7307C5.14817 23.7767 5.15865 23.8228 5.18251 23.8639C5.20636 23.905 5.24266 23.9395 5.28738 23.9635C5.33209 23.9875 5.38348 24.0002 5.43584 24H8.09406C8.27481 24 8.44494 23.9219 8.55127 23.7938L18.6206 11.5562L28.6899 23.7938C28.7962 23.9219 28.9664 24 29.1471 24H31.8053C32.0357 24 32.1704 23.7687 32.0357 23.6031Z" fill="#00979D"/>
</svg>
