<svg width="20" height="21" viewBox="0 0 20 21" fill="none" xmlns="http://www.w3.org/2000/svg">
<path d="M14.9549 10.0078L6.15027 3.13089C6.12726 3.11278 6.09961 3.10152 6.0705 3.09841C6.04138 3.09531 6.01198 3.10047 5.98567 3.11332C5.95936 3.12617 5.9372 3.14618 5.92175 3.17106C5.9063 3.19593 5.89818 3.22466 5.89832 3.25394V4.7637C5.89832 4.85941 5.94324 4.9512 6.01746 5.0098L13.0487 10.5L6.01746 15.9903C5.94129 16.0489 5.89832 16.1407 5.89832 16.2364V17.7461C5.89832 17.877 6.04871 17.9492 6.15027 17.8692L14.9549 10.9922C15.0298 10.9338 15.0903 10.8592 15.1319 10.7739C15.1736 10.6886 15.1952 10.5949 15.1952 10.5C15.1952 10.4051 15.1736 10.3115 15.1319 10.2262C15.0903 10.1409 15.0298 10.0662 14.9549 10.0078Z" fill="#262626"/>
</svg>
