<svg width="12" height="18" viewBox="0 0 12 18" fill="none" xmlns="http://www.w3.org/2000/svg">
<path d="M11.9683 2.11581V0.30409C11.9683 0.147059 11.7878 0.06034 11.666 0.156434L1.10033 8.40878C1.01056 8.47859 0.937919 8.56798 0.887952 8.67014C0.837986 8.77229 0.812012 8.88451 0.812012 8.99823C0.812012 9.11195 0.837986 9.22417 0.887952 9.32632C0.937919 9.42848 1.01056 9.51787 1.10033 9.58768L11.666 17.84C11.7902 17.9361 11.9683 17.8494 11.9683 17.6924V15.8807C11.9683 15.7658 11.9144 15.6557 11.8253 15.5853L3.38783 8.9994L11.8253 2.41112C11.9144 2.34081 11.9683 2.23065 11.9683 2.11581Z" fill="#262626"/>
</svg>
