<svg width="286" height="285" viewBox="0 0 286 285" fill="none" xmlns="http://www.w3.org/2000/svg">
<g filter="url(#filter0_dd_2741_58786)">
<circle cx="143" cy="126.5" r="118.5" fill="#FAFAFA"/>
</g>
<g filter="url(#filter1_dd_2741_58786)">
<circle cx="143" cy="126.5" r="97.5" fill="white"/>
</g>
<path d="M151.576 92.8547C151.519 92.8258 151.455 92.8121 151.391 92.8149C151.327 92.8178 151.264 92.8371 151.21 92.871C151.155 92.9048 151.11 92.9522 151.079 93.0084C151.048 93.0647 151.032 93.1279 151.033 93.1922V96.2016C151.033 96.4594 151.169 96.6984 151.384 96.8391C152.441 97.5044 153.419 98.2875 154.3 99.1734C155.833 100.711 157.037 102.497 157.876 104.484C158.744 106.542 159.189 108.753 159.184 110.986C159.184 113.241 158.744 115.43 157.876 117.488C157.038 119.472 155.824 121.276 154.3 122.798C152.781 124.326 150.979 125.543 148.994 126.38C146.94 127.252 144.751 127.692 142.501 127.692C140.251 127.692 138.062 127.252 136.009 126.38C134.024 125.543 132.222 124.326 130.703 122.798C129.179 121.276 127.965 119.472 127.126 117.488C126.259 115.43 125.814 113.219 125.819 110.986C125.819 108.731 126.259 106.542 127.126 104.484C127.965 102.497 129.17 100.711 130.703 99.1734C131.594 98.2828 132.569 97.5047 133.619 96.8391C133.839 96.7031 133.97 96.4594 133.97 96.2016V93.1875C133.97 92.9062 133.675 92.7281 133.426 92.85C126.869 96.15 122.345 102.905 122.251 110.733C122.12 121.927 131.275 131.227 142.464 131.25C153.667 131.273 162.751 122.189 162.751 110.981C162.751 103.05 158.205 96.1828 151.576 92.8547V92.8547ZM141.001 113.25H144.001C144.208 113.25 144.376 113.081 144.376 112.875V91.125C144.376 90.9187 144.208 90.75 144.001 90.75H141.001C140.795 90.75 140.626 90.9187 140.626 91.125V112.875C140.626 113.081 140.795 113.25 141.001 113.25Z" fill="#00979D"/>
<path d="M108.805 161H110.281L111.422 157.773H115.961L117.102 161H118.578L114.391 149.727H113L108.805 161ZM113.68 151.414H113.711L115.539 156.578H111.852L113.68 151.414ZM124.273 161.188C126.633 161.188 128.438 159.789 128.867 157.633L128.883 157.555H127.461L127.438 157.625C126.945 159.109 125.852 159.891 124.273 159.891C122.031 159.891 120.57 158.102 120.57 155.359V155.352C120.57 152.609 122.023 150.836 124.273 150.836C125.859 150.836 126.969 151.633 127.406 153L127.461 153.172H128.883L128.867 153.094C128.438 150.961 126.617 149.539 124.273 149.539C121.133 149.539 119.125 151.805 119.125 155.352V155.359C119.125 158.906 121.141 161.188 124.273 161.188ZM132.852 161H134.258V150.992H137.812V149.727H129.297V150.992H132.852V161ZM139.297 161H140.703V149.727H139.297V161ZM146.148 161H147.539L151.695 149.727H150.219L146.859 159.312H146.828L143.469 149.727H141.992L146.148 161ZM150.836 161H152.312L153.453 157.773H157.992L159.133 161H160.609L156.422 149.727H155.031L150.836 161ZM155.711 151.414H155.742L157.57 156.578H153.883L155.711 151.414ZM163.195 161H164.602V150.992H168.156V149.727H159.641V150.992H163.195V161ZM169.641 161H176.625V159.734H171.047V155.859H176.336V154.609H171.047V150.992H176.625V149.727H169.641V161Z" fill="#595959"/>
<defs>
<filter id="filter0_dd_2741_58786" x="0.5" y="0" width="285" height="285" filterUnits="userSpaceOnUse" color-interpolation-filters="sRGB">
<feFlood flood-opacity="0" result="BackgroundImageFix"/>
<feColorMatrix in="SourceAlpha" type="matrix" values="0 0 0 0 0 0 0 0 0 0 0 0 0 0 0 0 0 0 127 0" result="hardAlpha"/>
<feOffset dy="16"/>
<feGaussianBlur stdDeviation="12"/>
<feColorMatrix type="matrix" values="0 0 0 0 0.188235 0 0 0 0 0.192157 0 0 0 0 0.2 0 0 0 0.1 0"/>
<feBlend mode="normal" in2="BackgroundImageFix" result="effect1_dropShadow_2741_58786"/>
<feColorMatrix in="SourceAlpha" type="matrix" values="0 0 0 0 0 0 0 0 0 0 0 0 0 0 0 0 0 0 127 0" result="hardAlpha"/>
<feOffset/>
<feGaussianBlur stdDeviation="0.5"/>
<feColorMatrix type="matrix" values="0 0 0 0 0.188235 0 0 0 0 0.192157 0 0 0 0 0.2 0 0 0 0.05 0"/>
<feBlend mode="normal" in2="effect1_dropShadow_2741_58786" result="effect2_dropShadow_2741_58786"/>
<feBlend mode="normal" in="SourceGraphic" in2="effect2_dropShadow_2741_58786" result="shape"/>
</filter>
<filter id="filter1_dd_2741_58786" x="37.5" y="25" width="211" height="211" filterUnits="userSpaceOnUse" color-interpolation-filters="sRGB">
<feFlood flood-opacity="0" result="BackgroundImageFix"/>
<feColorMatrix in="SourceAlpha" type="matrix" values="0 0 0 0 0 0 0 0 0 0 0 0 0 0 0 0 0 0 127 0" result="hardAlpha"/>
<feOffset dy="4"/>
<feGaussianBlur stdDeviation="4"/>
<feColorMatrix type="matrix" values="0 0 0 0 0.188235 0 0 0 0 0.192157 0 0 0 0 0.2 0 0 0 0.1 0"/>
<feBlend mode="normal" in2="BackgroundImageFix" result="effect1_dropShadow_2741_58786"/>
<feColorMatrix in="SourceAlpha" type="matrix" values="0 0 0 0 0 0 0 0 0 0 0 0 0 0 0 0 0 0 127 0" result="hardAlpha"/>
<feOffset/>
<feGaussianBlur stdDeviation="0.5"/>
<feColorMatrix type="matrix" values="0 0 0 0 0.188235 0 0 0 0 0.192157 0 0 0 0 0.2 0 0 0 0.05 0"/>
<feBlend mode="normal" in2="effect1_dropShadow_2741_58786" result="effect2_dropShadow_2741_58786"/>
<feBlend mode="normal" in="SourceGraphic" in2="effect2_dropShadow_2741_58786" result="shape"/>
</filter>
</defs>
</svg>
