<svg width="18" height="18" viewBox="0 0 18 18" fill="none" xmlns="http://www.w3.org/2000/svg">
<path d="M9.0001 11.4C10.3256 11.4 11.4001 10.3255 11.4001 8.99998C11.4001 7.67449 10.3256 6.59998 9.0001 6.59998C7.67461 6.59998 6.6001 7.67449 6.6001 8.99998C6.6001 10.3255 7.67461 11.4 9.0001 11.4Z" fill="white"/>
<path d="M6.75 1.5L5.3775 3H3C2.175 3 1.5 3.675 1.5 4.5V13.5C1.5 14.325 2.175 15 3 15H15C15.825 15 16.5 14.325 16.5 13.5V4.5C16.5 3.675 15.825 3 15 3H12.6225L11.25 1.5H6.75ZM9 12.75C6.93 12.75 5.25 11.07 5.25 9C5.25 6.93 6.93 5.25 9 5.25C11.07 5.25 12.75 6.93 12.75 9C12.75 11.07 11.07 12.75 9 12.75Z" fill="white"/>
</svg>
