<svg width="70" height="76" viewBox="0 0 70 76" fill="none" xmlns="http://www.w3.org/2000/svg">
<path d="M54.983 53.9812L47.9277 51.63L45.3949 46.5643C47.6767 44.2418 49.261 41.1688 49.7952 37.9636L50.1111 36.0703H52.8125C55.268 36.0703 57.2656 34.0726 57.2656 31.6172V22.2656C57.2656 9.98836 47.2773 0 35 0C22.6913 0 12.7344 9.95971 12.7344 22.2656V31.6172C12.7344 33.5522 13.9755 35.2023 15.7031 35.815V37.5547C15.7031 40.0101 17.7008 42.0078 20.1562 42.0078H21.4598C22.1033 43.4056 22.9362 44.7003 23.9497 45.8633C24.1599 46.105 24.3791 46.3392 24.6037 46.5671L22.0723 51.63L15.0169 53.9814C6.8135 56.7168 0.859375 65.3527 0.859375 74.5156C0.859375 75.3354 1.52393 76 2.34375 76H67.6562C68.4759 76 69.1406 75.3354 69.1406 74.5156C69.1406 65.3527 63.1866 56.7168 54.983 53.9812ZM54.2969 31.6172C54.2969 32.4357 53.631 33.1016 52.8125 33.1016H50.547C50.9244 30.1788 51.1758 27.0686 51.2769 24.0053C51.2799 23.9189 51.2823 23.8349 51.2849 23.75H54.2969V31.6172ZM17.1875 33.1016C16.369 33.1016 15.7031 32.4357 15.7031 31.6172V23.75H18.7161C18.721 23.9048 18.7262 24.0604 18.732 24.217C18.7321 24.2223 18.7324 24.2275 18.7326 24.2329C18.7326 24.2333 18.7326 24.2338 18.7326 24.2342C18.8365 27.2136 19.0847 30.2431 19.4534 33.1014H17.1875V33.1016ZM20.1562 39.0391C19.3378 39.0391 18.6719 38.3732 18.6719 37.5547V36.0703H19.8888L20.2046 37.9642C20.2649 38.3242 20.339 38.6828 20.4246 39.0391H20.1562ZM18.6744 20.7812H15.7595C16.5114 10.8328 24.8138 2.96875 35 2.96875C45.141 2.96875 53.4799 10.8318 54.2403 20.7812H51.3258C51.2189 12.5835 44.5432 5.9375 36.3287 5.9375H33.6716C25.4572 5.9375 18.7811 12.5835 18.6744 20.7812ZM33.6715 8.90625H36.3285C42.9799 8.90625 48.3632 14.3466 48.3594 20.9905C48.3594 21.4577 48.3557 21.8644 48.3478 22.2345C48.3478 22.2392 48.3476 22.2441 48.3476 22.249L46.491 21.9837C41.4471 21.2635 36.6846 18.8823 33.0809 15.2785C32.8024 15.0002 32.4249 14.8438 32.0312 14.8438C28.0448 14.8438 24.2288 16.66 21.7062 19.7285C22.3279 13.6843 27.4376 8.90625 33.6715 8.90625ZM23.502 39.0391C22.759 36.5671 21.9087 29.2937 21.7208 24.6328L23.7186 21.9689C25.5534 19.5232 28.408 18.0037 31.4446 17.8293C35.4401 21.6316 40.609 24.1426 46.0712 24.9225L48.2565 25.2348C48.1104 28.3349 47.8119 31.4459 47.3843 34.307C47.3841 34.3079 47.384 34.309 47.3838 34.31C47.2479 35.2299 47.1407 35.8218 46.867 37.4753C46.0809 42.1904 42.5626 46.4543 37.9181 47.6155C36.0067 48.0927 33.993 48.0926 32.0826 47.6155C29.1826 46.8905 26.5235 44.8839 24.8074 42.0078H27.8334C28.4462 43.7355 30.0961 44.9766 32.0312 44.9766H35C37.4604 44.9766 39.4531 42.9839 39.4531 40.5234C39.4531 38.068 37.4555 36.0703 35 36.0703H32.0312C30.053 36.0703 28.4275 37.3481 27.8309 39.0391H23.502ZM31.9064 50.6196C32.9245 50.8341 33.9626 50.9438 35 50.9438C35.8121 50.9438 36.6244 50.8758 37.4274 50.744L34.8045 53.5178L31.9064 50.6196ZM32.7638 55.6758L28.0556 60.6547C26.7595 58.1737 25.6458 55.5916 24.7323 52.9482L26.5003 49.4122L32.7638 55.6758ZM43.2481 48.9093L45.2674 52.9481C44.3525 55.5959 43.2384 58.1789 41.9436 60.6569L36.9044 55.6177L43.2481 48.9093ZM30.5469 40.5234C30.5469 39.7039 31.2116 39.0391 32.0312 39.0391H35C35.8185 39.0391 36.4844 39.705 36.4844 40.5234C36.4844 41.3431 35.8195 42.0078 35 42.0078H32.0312C31.2128 42.0078 30.5469 41.3419 30.5469 40.5234ZM3.8875 73.0312C4.47576 65.6778 9.36959 58.994 15.9558 56.7977L22.2041 54.7154C23.3488 57.8808 24.767 60.9575 26.4291 63.8799C26.4319 63.885 26.4346 63.89 26.4374 63.8949L26.4375 63.8952C27.6519 66.0311 29.0187 68.1183 30.5006 70.0998L32.3266 73.0312H3.8875ZM35 71.7081L32.9869 68.4762C32.9643 68.4399 32.9403 68.4047 32.9147 68.3706C31.7127 66.7672 30.5914 65.0903 29.5702 63.3739L34.8639 57.7757L40.4419 63.3537C39.4138 65.0826 38.2886 66.7664 37.0855 68.3703C37.0128 68.4672 37.116 68.3145 35 71.7081ZM37.6734 73.0312L39.4993 70.0999C40.9877 68.1108 42.3643 66.0069 43.5908 63.8459C43.5982 63.8329 43.6052 63.8195 43.6126 63.8065C43.6135 63.8048 43.6144 63.8033 43.6153 63.8017C45.2563 60.9072 46.6596 57.8572 47.7959 54.7154L54.0441 56.7977C60.6304 58.994 65.5242 65.6778 66.1125 73.0312H37.6734Z" fill="#00979D"/>
</svg>
