<svg width="526" height="252" viewBox="0 0 526 252" fill="none" xmlns="http://www.w3.org/2000/svg">
<path d="M0 248.504V39.9028H140.562V76.2655H44.1038V125.971H133.33V162.334H44.1038V212.142H140.969V248.504H0Z" fill="#FF8C19"/>
<path d="M437.894 251.458C427.912 251.458 419.017 249.727 411.208 246.264C403.399 242.733 397.22 237.538 392.67 230.68C388.188 223.753 385.948 215.13 385.948 204.808C385.948 196.116 387.543 188.817 390.735 182.909C393.926 177.001 398.272 172.248 403.772 168.649C409.273 165.05 415.52 162.334 422.514 160.501C429.576 158.667 436.978 157.377 444.719 156.63C453.818 155.679 461.152 154.797 466.72 153.982C472.288 153.099 476.328 151.809 478.841 150.111C481.353 148.414 482.609 145.901 482.609 142.574V141.963C482.609 135.512 480.572 130.521 476.498 126.99C472.491 123.459 466.788 121.693 459.386 121.693C451.577 121.693 445.364 123.425 440.746 126.888C436.129 130.283 433.073 134.561 431.579 139.722L391.448 136.463C393.485 126.956 397.491 118.74 403.467 111.813C409.443 104.819 417.15 99.4548 426.588 95.72C436.095 91.9174 447.095 90.0161 459.59 90.0161C468.281 90.0161 476.6 91.0347 484.545 93.0718C492.557 95.1089 499.653 98.2665 505.832 102.544C512.08 106.822 517.003 112.323 520.602 119.045C524.201 125.7 526 133.678 526 142.981V248.504H484.85V226.809H483.628C481.115 231.698 477.754 236.01 473.544 239.745C469.334 243.412 464.275 246.298 458.367 248.403C452.46 250.44 445.635 251.458 437.894 251.458ZM450.321 221.513C456.704 221.513 462.34 220.256 467.229 217.744C472.118 215.163 475.955 211.7 478.739 207.355C481.523 203.009 482.915 198.086 482.915 192.585V175.983C481.557 176.866 479.689 177.68 477.313 178.427C475.004 179.106 472.39 179.751 469.47 180.363C466.55 180.906 463.63 181.415 460.71 181.89C457.79 182.298 455.142 182.671 452.765 183.011C447.673 183.758 443.225 184.946 439.422 186.576C435.62 188.206 432.666 190.412 430.561 193.196C428.456 195.913 427.403 199.308 427.403 203.382C427.403 209.29 429.542 213.805 433.82 216.929C438.166 219.985 443.666 221.513 450.321 221.513Z" fill="#FF8C19"/>
<path fill-rule="evenodd" clip-rule="evenodd" d="M299.364 41.2456V57.6414C299.364 58.7225 299.364 58.9027 297.922 59.0829C296.125 58.9058 294.314 58.9058 292.517 59.0829C286.856 59.8753 281.438 61.8992 276.644 65.0122C271.85 68.1252 267.797 72.2515 264.77 77.1004C260.854 83.1571 258.845 90.2495 259.004 97.4602C258.732 106.865 261.94 116.04 268.013 123.225C273.756 130.361 281.773 135.31 290.726 137.245C299.679 139.18 309.024 137.983 317.201 133.856C323.11 130.963 328.211 126.652 332.047 121.307C335.882 115.962 338.334 109.75 339.182 103.226L339.182 99.0818C339.182 97.6404 339.182 97.4602 340.804 97.4602H347.471H357.38H373.055C374.677 97.4602 374.857 97.4603 374.857 99.262C374.762 103.809 374.219 108.335 373.236 112.775C370.786 125.203 365.205 136.8 357.02 146.468C352.44 152.031 347.061 156.866 341.069 160.82L388.762 248.146H340.074L300.872 174.779C298.864 174.732 296.859 174.604 294.859 174.395C285.701 173.827 276.724 171.595 268.367 167.808V248.146H224.264V95.3619L224.409 95.4746C224.874 84.5863 227.687 73.8878 232.699 64.1278C235.903 57.6117 239.963 51.5523 244.771 46.1102C251.082 39.4012 258.522 33.8518 266.752 29.7144C274.272 25.9668 282.376 23.5294 290.715 22.5073H298.283C300.265 22.5073 300.445 22.5073 300.445 24.4893L299.364 41.2456Z" fill="#FF8C19"/>
<path fill-rule="evenodd" clip-rule="evenodd" d="M310.353 1.78246V6.46706L310.713 10.7912C310.713 12.9533 310.713 12.9534 312.515 12.9534C320.319 14.0125 327.914 16.2606 335.037 19.6198C347.086 25.0159 357.746 33.0882 366.207 43.2228C372.845 51.2057 378.029 60.2924 381.522 70.0689C383.371 75.2081 384.699 80.5198 385.486 85.9243C385.666 87.5459 385.847 87.5459 387.288 87.5459H396.477C397.738 87.3658 397.738 87.1856 397.738 86.1045V84.6631C395.367 68.9958 389.312 54.1146 380.073 41.2416C370.833 28.3686 358.671 17.8709 344.586 10.611C337.539 6.87122 330.026 4.08417 322.245 2.32297C318.915 1.5481 315.547 0.946738 312.155 0.52124C310.353 0.52124 310.353 0.521235 310.353 1.78246ZM283.416 122.819C288.055 126.031 293.54 127.802 299.182 127.908C302.995 128.005 306.79 127.334 310.339 125.935C313.889 124.537 317.121 122.439 319.844 119.766C322.566 117.094 324.724 113.902 326.189 110.379C327.654 106.856 328.395 103.075 328.37 99.2603C328.369 93.6175 326.702 88.1006 323.577 83.4019C320.452 78.7032 316.01 75.032 310.806 72.8487C305.603 70.6654 299.871 70.0673 294.329 71.1296C288.787 72.1919 283.682 74.8672 279.655 78.8198C275.628 82.7724 272.858 87.8262 271.692 93.3473C270.526 98.8684 271.017 104.611 273.103 109.854C275.189 115.097 278.776 119.608 283.416 122.819ZM368.01 87.551H364.406C362.785 87.551 362.785 87.5509 362.424 85.9294L362.424 85.9293C361.834 82.9793 360.99 80.0858 359.902 77.281C357.174 69.6574 353.016 62.6247 347.65 56.5608C338.392 46.2916 326.072 39.2785 312.516 36.5613C310.894 36.5613 310.894 36.5613 310.894 34.5794V26.1111V26.1111C310.894 24.4896 310.894 24.3094 312.696 24.6697C318.531 25.6338 324.221 27.3289 329.632 29.7147C340.992 34.6623 350.956 42.3363 358.641 52.0564C366.377 61.7585 371.633 73.1991 373.955 85.3888C373.955 87.5509 373.955 87.551 372.154 87.551H368.01ZM339.181 87.5498H344.045V87.1894L348.73 87.1894C349.991 87.1894 349.991 87.0093 349.991 85.5679C349.17 82.2542 347.96 79.049 346.388 76.0186C343.026 69.2799 338.265 63.3354 332.424 58.5819C326.583 53.8283 319.796 50.3749 312.515 48.4518C310.893 48.0915 310.893 48.2716 310.893 49.5328V59.2623C310.893 60.2698 310.893 60.7139 311.114 60.9097C311.287 61.064 311.598 61.064 312.154 61.064C314.743 61.9104 317.222 63.0595 319.542 64.4874C323.513 66.873 327.098 69.85 330.172 73.3159C333.295 77.132 335.733 81.4601 337.379 86.1084C337.739 87.5498 337.919 87.5498 339.181 87.5498Z" fill="#00A4B2"/>
<rect x="151.789" y="127.918" width="58.3571" height="35.8859" fill="#FF8C19"/>
</svg>
