<svg width="32" height="32" viewBox="0 0 32 32" fill="none" xmlns="http://www.w3.org/2000/svg">
<path fill-rule="evenodd" clip-rule="evenodd" d="M4.52942 5.54545L1.00001 1L1.00001 4.18307H1V31H28.3529V30.9981H31L26.5882 27.3617V29.1819H2.7647V5.54545H4.52942ZM11.5883 9.18197V11.0001H6.29414V9.18197H11.5883ZM4.52943 7.36379L13.353 7.36379V12.8183L4.52943 12.8183L4.52943 7.36379ZM16 18.2706V16.4524H6.29412L6.29412 18.2706H16ZM17.7647 14.6342L4.52941 14.6342V20.0887L17.7647 20.0887V14.6342ZM20.4117 23.7257V25.5439H6.2941V23.7257H20.4117ZM4.52939 21.9075H22.1765V27.3621L4.52939 27.3621L4.52939 21.9075Z" fill="black"/>
</svg>
