<svg width="91" height="90" viewBox="0 0 91 90" fill="none" xmlns="http://www.w3.org/2000/svg">
<path d="M90.5 0H0.5V90H90.5V0Z" fill="white"/>
<path d="M46.3544 8.26758C47.6723 8.6834 48.6167 9.59961 49.5611 10.5581C52.789 13.8212 56.045 17.0561 59.2941 20.2981C59.4632 20.4673 59.6394 20.6223 59.9424 20.9113C59.9424 20.2558 59.9706 19.7484 59.9213 19.241C59.9143 19.1211 59.6887 18.9731 59.5407 18.9168C58.2157 18.4375 57.6731 17.6904 57.666 16.295C57.659 15.4563 57.6519 14.6176 57.6731 13.786C57.7013 12.3976 58.6598 11.3263 60.0411 11.3193C64.2275 11.284 68.4068 11.284 72.5932 11.3193C73.9182 11.3334 74.8767 12.32 74.9472 13.6521C74.9965 14.6529 74.9965 15.6607 74.9472 16.6615C74.8908 17.8666 74.3622 18.4093 72.6989 19.0929C72.6989 19.3255 72.6989 19.5863 72.6989 19.8471C72.6989 24.2237 72.706 28.6004 72.6919 32.97C72.6919 33.4845 72.8187 33.858 73.1993 34.2245C75.1093 36.0992 77.0051 37.9951 78.8869 39.898C80.0497 41.082 80.4585 42.5127 79.9934 44.1196C79.5352 45.6912 78.4781 46.7625 76.8712 47.0444C76.0466 47.1854 75.1445 46.9387 74.2776 46.84C74.0803 46.8189 73.897 46.692 73.6363 46.5793C73.6363 46.9316 73.6363 47.2135 73.6363 47.4955C73.6363 58.2997 73.6363 69.111 73.6363 79.9152C73.6363 81.4445 73.3685 81.7194 71.8602 81.7194C54.262 81.7194 36.6637 81.7194 19.0654 81.7194C17.6347 81.7194 17.3387 81.4305 17.3387 80.0068C17.3387 69.1744 17.3387 58.342 17.3387 47.5166C17.3387 47.2276 17.3387 46.9457 17.3387 46.537C17.0638 46.6568 16.8594 46.7554 16.6551 46.84C14.8579 47.573 12.7999 47.0021 11.6511 45.4587C10.4812 43.88 10.5376 41.7374 11.8062 40.2151C11.9894 39.9966 12.1938 39.7922 12.3982 39.5879C22.1735 29.8197 31.9558 20.0585 41.7099 10.2691C42.6049 9.37408 43.5282 8.58473 44.7757 8.26758C45.3042 8.26758 45.8328 8.26758 46.3544 8.26758ZM19.6504 79.3866C36.9315 79.3866 54.1069 79.3866 71.3387 79.3866C71.3387 79.154 71.3387 78.9637 71.3387 78.7735C71.3387 67.49 71.3457 56.1995 71.3176 44.916C71.3176 44.5706 71.1061 44.1407 70.8524 43.887C62.5854 35.5847 54.2972 27.3036 46.0161 19.0225C45.854 18.8604 45.6778 18.7124 45.4875 18.5432C45.2901 18.7265 45.1351 18.8745 44.98 19.0225C36.713 27.2895 28.446 35.5565 20.1648 43.8095C19.7702 44.2041 19.6433 44.5918 19.6433 45.1274C19.6574 56.2699 19.6504 67.4124 19.6504 78.555C19.6504 78.8157 19.6504 79.0765 19.6504 79.3866ZM75.8281 45.0499C75.8634 44.9935 75.9056 44.9371 75.9409 44.8737C76.8571 44.8737 77.5901 44.2887 77.8015 43.3937C78.02 42.4845 77.576 41.8502 76.9699 41.2441C67.0748 31.3631 57.1868 21.4751 47.2988 11.5871C45.9244 10.2128 45.0364 10.2128 43.6692 11.5871C33.767 21.4821 23.8579 31.3843 13.9487 41.2864C13.7937 41.4414 13.6386 41.5894 13.5047 41.7586C13.0184 42.3788 12.9268 43.0695 13.2721 43.7742C13.6245 44.5002 14.2306 44.8737 15.0552 44.8807C15.8023 44.8878 16.2815 44.4438 16.7678 43.9645C25.9299 34.8024 35.092 25.6403 44.2471 16.4782C45.276 15.4493 45.6989 15.4563 46.742 16.4994C51.6261 21.3835 56.5102 26.2676 61.3943 31.1517C65.6864 35.4438 69.9714 39.7429 74.2847 44.0209C74.7216 44.4438 75.3136 44.7116 75.8281 45.0499ZM70.3661 19.0718C67.6386 19.0718 64.9605 19.0718 62.2471 19.0718C62.2471 20.3052 62.2118 21.4751 62.2682 22.638C62.2823 22.9974 62.4585 23.4273 62.7052 23.681C65.0662 26.0843 67.4554 28.4594 69.8305 30.8345C69.9714 30.9755 70.1335 31.1023 70.3591 31.3067C70.3661 27.1556 70.3661 23.1172 70.3661 19.0718ZM59.9988 16.591C60.0764 16.6544 60.0975 16.6826 60.1186 16.6826C64.157 16.6967 68.1954 16.7108 72.2267 16.6897C72.3677 16.6897 72.6214 16.3866 72.6355 16.2175C72.6848 15.5973 72.6214 14.9771 72.6637 14.3569C72.706 13.7789 72.5298 13.5745 71.9166 13.5816C68.1672 13.6098 64.4178 13.5957 60.6613 13.5957C60.4499 13.5957 60.2455 13.6239 59.9918 13.638C59.9988 14.6529 59.9988 15.6184 59.9988 16.591Z" fill="#00A4B2"/>
<path d="M46.1276 45.875C52.4142 46.0864 57.9185 48.8914 61.9498 54.5085C62.4784 55.2415 62.422 55.9181 61.8371 56.3339C61.2591 56.7427 60.6037 56.5665 60.0822 55.8264C57.0939 51.6119 53.0555 48.9901 47.9318 48.3558C41.0955 47.5101 35.5136 49.9204 31.2709 55.3683C31.1229 55.5586 30.996 55.763 30.8551 55.9533C30.3758 56.5735 29.7133 56.7286 29.1777 56.3409C28.628 55.9463 28.5505 55.2908 28.9945 54.6354C30.6014 52.2673 32.6311 50.3292 35.0696 48.8351C38.2693 46.8687 41.7791 45.9173 46.1276 45.875Z" fill="#00A4B2"/>
<path d="M45.8804 51.0117C50.8068 51.195 55.0143 53.3798 57.9603 57.841C58.1788 58.1652 58.3127 58.6726 58.2281 59.025C58.1506 59.3422 57.7277 59.751 57.4246 59.7862C57.0511 59.8285 56.5366 59.6241 56.2547 59.3492C55.7684 58.87 55.4442 58.2286 55.0002 57.7001C49.651 51.4205 39.7136 51.9843 35.0903 58.8206C34.9846 58.9757 34.8859 59.1448 34.7731 59.2928C34.3291 59.899 33.7089 60.0399 33.1592 59.6805C32.6165 59.3281 32.4262 58.6163 32.8773 58.0524C33.8921 56.7909 34.8718 55.4659 36.077 54.4158C38.7481 52.09 41.9618 51.0611 45.8804 51.0117Z" fill="#00A4B2"/>
<path d="M45.4725 61.3106C47.9886 61.2965 50.0536 63.3263 50.0677 65.8282C50.0888 68.3302 48.0379 70.3952 45.5289 70.4022C43.0128 70.4093 40.9479 68.3866 40.9338 65.8846C40.9126 63.3897 42.9565 61.3247 45.4725 61.3106ZM45.5078 63.6082C44.2603 63.6011 43.2172 64.6301 43.2243 65.8635C43.2313 67.0686 44.2392 68.0906 45.4514 68.1117C46.7059 68.1329 47.7489 67.125 47.7701 65.8917C47.7912 64.6583 46.7552 63.6152 45.5078 63.6082Z" fill="#00A4B2"/>
<path d="M54.4368 62.2128C54.169 62.5088 53.9293 62.8964 53.584 63.1078C53.1188 63.3897 52.6537 63.1783 52.3083 62.7836C52.1533 62.6074 52.0617 62.3749 51.9419 62.1705C50.4618 59.7672 48.3334 58.4563 45.4861 58.4634C42.6388 58.4704 40.5174 59.7883 39.0585 62.2128C38.9951 62.3114 38.9528 62.4242 38.8894 62.5299C38.4877 63.1783 37.8957 63.3827 37.3177 63.0726C36.7116 62.7484 36.5425 62.1071 36.9019 61.4023C37.7829 59.7038 39.0444 58.3717 40.7148 57.4203C45.4297 54.728 51.4415 56.4406 54.0069 61.2049C54.1478 61.4728 54.2465 61.7688 54.4368 62.2128Z" fill="#00A4B2"/>
</svg>
