<svg width="32" height="32" viewBox="0 0 32 32" fill="none" xmlns="http://www.w3.org/2000/svg">
<path d="M0 16C0 7.16344 7.16344 0 16 0C24.8366 0 32 7.16344 32 16C32 24.8366 24.8366 32 16 32C7.16344 32 0 24.8366 0 16Z" fill="white"/>
<path d="M16.0004 11.7475C17.3023 11.7475 18.1806 12.3099 18.6813 12.7798L20.638 10.8693C19.4363 9.75228 17.8724 9.06665 16.0004 9.06665C13.2887 9.06665 10.9468 10.6228 9.80664 12.8877L12.0484 14.6287C12.6108 12.957 14.1669 11.7475 16.0004 11.7475Z" fill="#EA4335"/>
<path d="M22.656 16.1541C22.656 15.584 22.6098 15.168 22.5096 14.7366H16V17.3096H19.821C19.744 17.949 19.328 18.912 18.4036 19.5591L20.5914 21.2539C21.901 20.0444 22.656 18.2649 22.656 16.1541Z" fill="#4285F4"/>
<path d="M12.0554 17.3713C11.9091 16.9398 11.8243 16.4776 11.8243 16C11.8243 15.5224 11.9091 15.0601 12.0477 14.6287L9.80596 12.8877C9.33604 13.8275 9.06641 14.883 9.06641 16C9.06641 17.117 9.33604 18.1724 9.80596 19.1123L12.0554 17.3713Z" fill="#FBBC05"/>
<path d="M16.0005 22.9333C17.8725 22.9333 19.4441 22.317 20.5919 21.2539L18.4041 19.5591C17.8186 19.9674 17.0328 20.2524 16.0005 20.2524C14.167 20.2524 12.6109 19.0429 12.0562 17.3712L9.81445 19.1123C10.9546 21.3771 13.2888 22.9333 16.0005 22.9333Z" fill="#34A853"/>
</svg>
