<svg width="32" height="32" viewBox="0 0 32 32" fill="none" xmlns="http://www.w3.org/2000/svg">
<path d="M0 16C0 7.16344 7.16344 0 16 0C24.8366 0 32 7.16344 32 16C32 24.8366 24.8366 32 16 32C7.16344 32 0 24.8366 0 16Z" fill="white"/>
<path fill-rule="evenodd" clip-rule="evenodd" d="M19.5113 6.40002C19.6788 7.53777 19.2157 8.65239 18.6048 9.441C17.9512 10.2869 16.8246 10.9411 15.7331 10.907C15.5338 9.81768 16.044 8.69535 16.6648 7.94089C17.3457 7.10823 18.5128 6.46941 19.5113 6.40002ZM22.7902 22.4144C23.353 21.552 23.5632 21.117 24 20.1433C20.8229 18.9351 20.3138 14.4182 23.4581 12.6846C22.499 11.4819 21.1513 10.7847 19.8791 10.7847C18.9625 10.7847 18.3344 11.0239 17.7635 11.2414C17.2877 11.4226 16.8515 11.5887 16.321 11.5887C15.7477 11.5887 15.2401 11.4067 14.7085 11.2161C14.1244 11.0067 13.5114 10.7869 12.7508 10.7869C11.3232 10.7869 9.80359 11.6592 8.84016 13.1505C7.48588 15.2509 7.71689 19.1994 9.91308 22.5631C10.6981 23.767 11.7469 25.1195 13.1187 25.1316C13.6879 25.1372 14.0667 24.9674 14.4766 24.7835C14.9457 24.5731 15.4556 24.3444 16.3385 24.3397C17.2266 24.3344 17.7285 24.5659 18.1914 24.7794C18.5908 24.9636 18.9612 25.1344 19.5255 25.1283C20.8984 25.1173 22.0053 23.6183 22.7902 22.4144Z" fill="#0B0B0A"/>
</svg>
