<svg width="32" height="32" viewBox="0 0 32 32" fill="none" xmlns="http://www.w3.org/2000/svg">
<rect x="24.5" y="0.5" width="7" height="7" rx="3.5" fill="#E50000"/>
<rect x="24.5" y="0.5" width="7" height="7" rx="3.5" stroke="white"/>
<path d="M6 28C5.46667 28 5 27.8 4.6 27.4C4.2 27 4 26.5333 4 26V6C4 5.46667 4.2 5 4.6 4.6C5 4.2 5.46667 4 6 4H21.4L28 10.6V26C28 26.5333 27.8 27 27.4 27.4C27 27.8 26.5333 28 26 28H6ZM6 26H26V11.7H20.3V6H6V26ZM9.3 22.3H22.7V20.3H9.3V22.3ZM9.3 11.7H16V9.7H9.3V11.7ZM9.3 17H22.7V15H9.3V17ZM6 6V11.7V6V26V6Z" fill="#262626"/>
</svg>
