<svg width="20" height="20" viewBox="0 0 20 20" fill="none" xmlns="http://www.w3.org/2000/svg">
<path d="M7.91699 5.41699V7.91699H5.41699V5.41699H7.91699ZM9.16699 4.16699H4.16699V9.16699H9.16699V4.16699ZM7.91699 12.0837V14.5837H5.41699V12.0837H7.91699ZM9.16699 10.8337H4.16699V15.8337H9.16699V10.8337ZM14.5837 5.41699V7.91699H12.0837V5.41699H14.5837ZM15.8337 4.16699H10.8337V9.16699H15.8337V4.16699ZM10.8337 10.8337H12.0837V12.0837H10.8337V10.8337ZM12.0837 12.0837H13.3337V13.3337H12.0837V12.0837ZM13.3337 10.8337H14.5837V12.0837H13.3337V10.8337ZM10.8337 13.3337H12.0837V14.5837H10.8337V13.3337ZM12.0837 14.5837H13.3337V15.8337H12.0837V14.5837ZM13.3337 13.3337H14.5837V14.5837H13.3337V13.3337ZM14.5837 12.0837H15.8337V13.3337H14.5837V12.0837ZM14.5837 14.5837H15.8337V15.8337H14.5837V14.5837ZM18.3337 5.83366H16.667V3.33366H14.167V1.66699H18.3337V5.83366ZM18.3337 18.3337V14.167H16.667V16.667H14.167V18.3337H18.3337ZM1.66699 18.3337H5.83366V16.667H3.33366V14.167H1.66699V18.3337ZM1.66699 1.66699V5.83366H3.33366V3.33366H5.83366V1.66699H1.66699Z" fill="#00A4B2"/>
</svg>
