<svg width="91" height="90" viewBox="0 0 91 90" fill="none" xmlns="http://www.w3.org/2000/svg">
<path d="M90.5 0H0.5V90H90.5V0Z" fill="white"/>
<path d="M44.6124 82.2766C44.1543 82.1004 43.6821 81.9665 43.2521 81.7409C41.455 80.8318 40.4612 79.3729 40.2991 77.3572C40.285 77.1881 40.2639 77.0189 40.2709 77.0542C39.249 76.5749 38.2623 76.2648 37.4589 75.701C36.0634 74.7214 35.4362 73.2766 35.3798 71.5569C35.3164 69.5342 35.3305 67.4903 35.0274 65.5029C34.5552 62.3455 32.9765 59.6744 30.8551 57.2993C27.0846 53.0706 25.372 48.116 25.7455 42.4496C26.2741 34.4574 31.9898 27.2758 39.6648 25.0064C50.9131 21.6728 62.3234 28.2836 64.8536 39.7433C66.242 46.0369 64.7549 51.7597 60.6319 56.7354C59.2576 58.3987 57.8904 60.0408 57.0164 62.0354C56.0791 64.1708 55.6703 66.4191 55.628 68.7378C55.6139 69.6258 55.628 70.5209 55.621 71.4089C55.5928 74.1928 53.9507 76.1802 51.2161 76.7511C51.0752 76.7793 50.9342 76.8004 50.7721 76.8357C50.7228 77.2726 50.7087 77.6885 50.6171 78.0972C50.1519 80.127 48.9115 81.4449 46.9381 82.0863C46.7549 82.1427 46.5787 82.2202 46.3954 82.2836C45.7964 82.2766 45.2044 82.2766 44.6124 82.2766ZM53.7463 64.4457C54.5356 60.9923 56.2764 58.1027 58.574 55.4739C62.1261 51.4073 63.5145 46.6501 62.7251 41.3079C61.2803 31.5044 51.6954 24.8161 42.0399 26.8388C28.8254 29.6015 23.5466 45.3603 32.4409 55.5162C34.4495 57.8138 36.0634 60.3157 36.9233 63.2687C37.036 63.6634 37.1558 64.0581 37.2686 64.4457C42.794 64.4457 48.249 64.4457 53.7463 64.4457ZM37.776 66.8772C37.776 68.5968 37.7197 70.2531 37.7901 71.9022C37.8465 73.2836 39.094 74.4042 40.5247 74.4183C43.8371 74.4465 47.1496 74.4465 50.462 74.4183C51.9914 74.4042 53.1684 73.2061 53.2247 71.6838C53.2529 70.9649 53.2318 70.2531 53.2388 69.5342C53.2388 68.6603 53.2388 67.7863 53.2388 66.8842C48.0799 66.8772 42.9209 66.8772 37.776 66.8772ZM48.2843 76.8498C46.3884 76.8498 44.5489 76.8498 42.7165 76.8498C42.5897 78.5131 43.8371 79.8803 45.4651 79.8944C47.1284 79.9156 48.4182 78.5412 48.2843 76.8498Z" fill="#00A4B2"/>
<path d="M26.8651 60.4492C27.9223 60.4633 28.472 61.4148 28.028 62.2041C27.9223 62.3944 27.7602 62.5565 27.6051 62.7116C24.9904 65.3333 22.3687 67.948 19.7539 70.5628C19.6482 70.6685 19.5495 70.7742 19.4297 70.8658C18.9082 71.2746 18.2457 71.2464 17.8228 70.7883C17.3859 70.302 17.2943 69.717 17.7524 69.2519C20.5785 66.3905 23.4258 63.5502 26.2802 60.717C26.4564 60.5408 26.7594 60.4986 26.8651 60.4492Z" fill="#00A4B2"/>
<path d="M73.5217 69.842C73.5077 70.8358 72.5985 71.3996 71.8303 71.019C71.6611 70.9345 71.499 70.8005 71.3651 70.6666C68.6729 67.9814 65.9877 65.2962 63.3025 62.604C63.1474 62.4489 62.9853 62.2727 62.9078 62.0754C62.7105 61.5398 62.795 61.0394 63.2743 60.687C63.7465 60.3346 64.2962 60.2994 64.705 60.7081C67.5664 63.5343 70.4066 66.3816 73.2398 69.2359C73.416 69.4121 73.4654 69.7152 73.5217 69.842Z" fill="#00A4B2"/>
<path d="M29.0286 25.252C29.0145 26.3796 28.049 26.9364 27.2667 26.4924C27.0764 26.3867 26.9143 26.2246 26.7592 26.0695C24.3489 23.6592 21.9386 21.2488 19.5212 18.8385C19.0913 18.4156 18.7812 17.9646 19.049 17.3303C19.3802 16.555 20.2823 16.3436 20.9448 16.9286C21.4804 17.4008 21.9667 17.9293 22.4742 18.4368C24.4687 20.4313 26.4632 22.4117 28.4436 24.4203C28.7256 24.6952 28.9088 25.0758 29.0286 25.252Z" fill="#00A4B2"/>
<path d="M72.2199 17.697C71.9451 18.141 71.8041 18.4934 71.5574 18.74C69.0907 21.2349 66.6029 23.7157 64.115 26.1895C63.5371 26.7674 62.8394 26.8027 62.339 26.3234C61.8104 25.816 61.8456 25.1183 62.4588 24.4981C64.9325 22.0102 67.4204 19.5364 69.9012 17.0556C70.2959 16.6609 70.7822 16.3931 71.2896 16.7103C71.6561 16.9287 71.8957 17.3375 72.2199 17.697Z" fill="#00A4B2"/>
<path d="M46.6907 12.9816C46.6907 14.6872 46.6978 16.3928 46.6907 18.0913C46.6907 19.0286 46.2538 19.5572 45.4997 19.5502C44.7456 19.5502 44.3227 19.0286 44.3156 18.0842C44.3156 14.652 44.3086 11.2197 44.3156 7.78744C44.3156 6.85713 44.7667 6.31445 45.5067 6.31445C46.2467 6.31445 46.6837 6.85713 46.6907 7.79448C46.6907 9.52119 46.6907 11.2549 46.6907 12.9816Z" fill="#00A4B2"/>
<path d="M14.4686 44.3089C12.7419 44.3089 11.0081 44.3159 9.28142 44.3089C8.40749 44.3018 7.87891 43.8437 7.87891 43.1319C7.88595 42.4271 8.42863 41.9479 9.28846 41.9408C12.7701 41.9338 16.2587 41.9338 19.7403 41.9408C20.5931 41.9408 21.1499 42.4412 21.1428 43.139C21.1428 43.8508 20.6001 44.3018 19.7262 44.3089C17.9713 44.3159 16.2164 44.3089 14.4686 44.3089Z" fill="#00A4B2"/>
<path d="M76.4344 44.3101C74.7289 44.3101 73.0233 44.3171 71.3178 44.3101C70.3874 44.3101 69.8377 43.852 69.8518 43.1119C69.8659 42.4142 70.4156 41.942 71.2825 41.935C74.743 41.9279 78.2034 41.9279 81.6568 41.935C82.573 41.935 83.1298 42.4213 83.1157 43.1472C83.1016 43.8802 82.559 44.303 81.6146 44.303C79.8949 44.3101 78.1682 44.3101 76.4344 44.3101Z" fill="#00A4B2"/>
</svg>
