<svg width="32" height="32" viewBox="0 0 32 32" fill="none" xmlns="http://www.w3.org/2000/svg">
<path fill-rule="evenodd" clip-rule="evenodd" d="M4.52942 5.54545L1.00001 1L1.00001 4.18307H1V31H28.3529V30.9981H31L26.5882 27.3617V29.1819H2.7647V5.54545H4.52942ZM6.29412 25.5439C7.26874 25.5439 8.05883 24.7299 8.05883 23.7257C8.05883 23.3385 7.94137 22.9796 7.74115 22.6847L12.209 15.5242C12.2943 15.5373 12.3817 15.544 12.4706 15.544C12.5112 15.544 12.5516 15.5426 12.5916 15.5398L17.8458 22.2702C17.7931 22.4426 17.7647 22.6262 17.7647 22.8165C17.7647 23.8207 18.5548 24.6347 19.5294 24.6347C20.504 24.6347 21.2941 23.8207 21.2941 22.8165C21.2941 22.5215 21.2259 22.2428 21.1048 21.9964L25.8034 11.9064C26.7327 11.8542 27.4706 11.0614 27.4706 10.0909C27.4706 9.08676 26.6805 8.27274 25.7059 8.27274C24.7313 8.27274 23.9412 9.08676 23.9412 10.0909C23.9412 10.458 24.0468 10.7997 24.2283 11.0854L19.6113 21.0003C19.5847 20.999 19.5578 20.9984 19.5309 20.9984H19.5294C19.3993 20.9984 19.2725 21.0129 19.1504 21.0404L14.0591 14.5187C14.172 14.2791 14.2353 14.0101 14.2353 13.7258C14.2353 12.7217 13.4452 11.9077 12.4706 11.9077C11.496 11.9077 10.7059 12.7217 10.7059 13.7258C10.7059 13.957 10.7477 14.1781 10.8241 14.3815L6.12291 21.916C5.22863 22.0047 4.52942 22.7811 4.52942 23.7257C4.52942 24.7299 5.3195 25.5439 6.29412 25.5439Z" fill="black"/>
</svg>
