<svg width="74" height="36" viewBox="0 0 74 36" fill="none" xmlns="http://www.w3.org/2000/svg">
<path d="M0 34.8874V5.54041H19.7748V10.6561H6.20471V17.6489H18.7574V22.7646H6.20471V29.7717H19.8322V34.8874H0Z" fill="#FF8C19"/>
<path d="M61.6049 35.303C60.2006 35.303 58.9492 35.0594 57.8506 34.5722C56.752 34.0754 55.8826 33.3446 55.2426 32.3797C54.6121 31.4053 54.2968 30.1921 54.2968 28.74C54.2968 27.5172 54.5213 26.4903 54.9703 25.6592C55.4193 24.828 56.0307 24.1593 56.8045 23.653C57.5783 23.1467 58.4572 22.7646 59.4411 22.5066C60.4347 22.2487 61.4759 22.0672 62.565 21.9621C63.8451 21.8284 64.8768 21.7042 65.6602 21.5895C66.4435 21.4654 67.0119 21.2839 67.3654 21.045C67.7189 20.8062 67.8956 20.4527 67.8956 19.9846V19.8987C67.8956 18.9911 67.609 18.289 67.0358 17.7922C66.4722 17.2954 65.6697 17.0471 64.6284 17.0471C63.5298 17.0471 62.6557 17.2907 62.0061 17.7779C61.3565 18.2555 60.9266 18.8574 60.7165 19.5834L55.0706 19.1249C55.3572 17.7874 55.9208 16.6315 56.7615 15.6571C57.6022 14.6731 58.6864 13.9184 60.0143 13.393C61.3517 12.8581 62.8993 12.5906 64.6571 12.5906C65.8799 12.5906 67.0502 12.7339 68.1679 13.0205C69.2951 13.307 70.2934 13.7513 71.1627 14.3531C72.0416 14.955 72.7342 15.7287 73.2405 16.6745C73.7468 17.6107 74 18.7332 74 20.042V34.8874H68.2109V31.8352H68.0389C67.6854 32.523 67.2126 33.1296 66.6203 33.6551C66.028 34.1709 65.3163 34.5769 64.4852 34.8731C63.654 35.1597 62.694 35.303 61.6049 35.303ZM63.3531 31.0901C64.2511 31.0901 65.044 30.9133 65.7318 30.5599C66.4196 30.1969 66.9594 29.7097 67.3511 29.0983C67.7427 28.4869 67.9386 27.7943 67.9386 27.0205V24.6847C67.7475 24.8089 67.4848 24.9236 67.1505 25.0287C66.8257 25.1242 66.4579 25.2149 66.0471 25.3009C65.6363 25.3773 65.2255 25.449 64.8147 25.5159C64.404 25.5732 64.0314 25.6257 63.697 25.6735C62.9805 25.7786 62.3548 25.9457 61.8199 26.175C61.2849 26.4043 60.8693 26.7148 60.5732 27.1064C60.277 27.4886 60.129 27.9662 60.129 28.5394C60.129 29.3705 60.4299 30.0058 61.0317 30.4452C61.6431 30.8751 62.4169 31.0901 63.3531 31.0901Z" fill="#FF8C19"/>
<path fill-rule="evenodd" clip-rule="evenodd" d="M42.1159 5.72928V8.03592C42.1159 8.18801 42.1159 8.21336 41.9132 8.23871C41.6603 8.2138 41.4056 8.2138 41.1527 8.23871C40.3563 8.35019 39.5941 8.63493 38.9196 9.07288C38.2452 9.51082 37.675 10.0913 37.2492 10.7735C36.6982 11.6256 36.4157 12.6234 36.438 13.6378C36.3996 14.9609 36.8509 16.2516 37.7054 17.2625C38.5133 18.2665 39.6412 18.9627 40.9007 19.2349C42.1603 19.5071 43.4751 19.3388 44.6254 18.7581C45.4567 18.3512 46.1743 17.7446 46.7139 16.9927C47.2536 16.2407 47.5985 15.3668 47.7178 14.4489L47.7178 13.8659C47.7178 13.6632 47.7178 13.6378 47.946 13.6378H48.8838H50.278H52.4832C52.7113 13.6378 52.7367 13.6378 52.7367 13.8913C52.7233 14.5309 52.6469 15.1677 52.5086 15.7924C52.164 17.5408 51.3787 19.1723 50.2273 20.5324C49.583 21.3151 48.8262 21.9952 47.9832 22.5515L54.6928 34.837H47.8433L42.3281 24.5154C42.0457 24.5088 41.7635 24.4908 41.4822 24.4613C40.1938 24.3815 38.9309 24.0674 37.7553 23.5346V34.837H31.5505V13.3426L31.571 13.3585C31.6364 11.8266 32.0321 10.3215 32.7372 8.94845C33.1881 8.03174 33.7592 7.17928 34.4355 6.41366C35.3235 5.46981 36.3702 4.68909 37.528 4.10702C38.5859 3.57979 39.726 3.2369 40.8992 3.0931H41.9639C42.2427 3.0931 42.268 3.0931 42.268 3.37193L42.1159 5.72928Z" fill="#FF8C19"/>
<path fill-rule="evenodd" clip-rule="evenodd" d="M43.6615 0.177434V0.836483L43.7122 1.44483C43.7122 1.749 43.7122 1.74901 43.9657 1.74901C45.0635 1.89801 46.1321 2.21429 47.1342 2.68687C48.8293 3.44601 50.329 4.58166 51.5193 6.00745C52.4532 7.13051 53.1824 8.40888 53.6739 9.78427C53.934 10.5073 54.1208 11.2546 54.2316 12.0149C54.2569 12.243 54.2823 12.243 54.485 12.243L55.7778 12.243C55.9552 12.2177 55.9552 12.1923 55.9552 12.0402V11.8374C55.6216 9.6333 54.7699 7.53975 53.47 5.72872C52.1701 3.91768 50.4591 2.44083 48.4776 1.41947C47.4861 0.893342 46.4292 0.501248 45.3345 0.253474C44.866 0.144463 44.3922 0.0598603 43.915 0C43.6615 0 43.6615 0 43.6615 0.177434ZM39.8717 17.2055C40.5244 17.6573 41.2961 17.9064 42.0898 17.9214C42.6263 17.935 43.1601 17.8406 43.6595 17.6438C44.1588 17.4471 44.6135 17.1519 44.9966 16.776C45.3796 16.4 45.6832 15.9509 45.8893 15.4553C46.0953 14.9597 46.1997 14.4278 46.1961 13.8911C46.196 13.0972 45.9614 12.3211 45.5218 11.66C45.0822 10.999 44.4572 10.4825 43.7252 10.1754C42.9932 9.86822 42.1867 9.78407 41.4071 9.93352C40.6274 10.083 39.9093 10.4593 39.3427 11.0154C38.7762 11.5715 38.3864 12.2825 38.2224 13.0592C38.0584 13.8359 38.1275 14.6438 38.4209 15.3814C38.7143 16.1191 39.219 16.7536 39.8717 17.2055ZM51.7727 12.2438H51.2658C51.0376 12.2438 51.0376 12.2437 50.9869 12.0156C50.9039 11.6006 50.7852 11.1935 50.6321 10.7989C50.2483 9.7264 49.6633 8.73701 48.9084 7.88392C47.606 6.43919 45.8728 5.45257 43.9656 5.0703C43.7375 5.0703 43.7375 5.0703 43.7375 4.79148V3.60012V3.60011C43.7375 3.37199 43.7375 3.34664 43.9909 3.39734C44.8118 3.53297 45.6123 3.77144 46.3736 4.10709C47.9718 4.80314 49.3736 5.88275 50.4546 7.25022C51.543 8.61515 52.2825 10.2247 52.6092 11.9396C52.6092 12.2437 52.6092 12.2438 52.3557 12.2438H51.7727ZM47.7171 12.2436H48.4015V12.1929H49.0605C49.238 12.1929 49.238 12.1675 49.238 11.9647C49.1224 11.4986 48.9522 11.0476 48.731 10.6213C48.258 9.67327 47.5883 8.83698 46.7666 8.16823C45.9448 7.49947 44.99 7.01363 43.9656 6.74309C43.7375 6.69239 43.7375 6.71773 43.7375 6.89517V8.26396C43.7375 8.40569 43.7375 8.46817 43.7685 8.49572C43.793 8.51743 43.8367 8.51743 43.9149 8.51743C44.2791 8.6365 44.6279 8.79816 44.9542 8.99905C45.5129 9.33466 46.0172 9.75348 46.4497 10.2411C46.889 10.7779 47.2321 11.3868 47.4636 12.0408C47.5143 12.2436 47.5397 12.2436 47.7171 12.2436Z" fill="#00A4B2"/>
<rect x="21.3545" y="17.9227" width="8.20994" height="5.04859" fill="#FF8C19"/>
</svg>
