<svg width="24" height="24" viewBox="0 0 16 16" fill="none" xmlns="http://www.w3.org/2000/svg">
<path d="M7.99998 1.33333C4.31998 1.33333 1.33331 4.32 1.33331 8C1.33331 11.68 4.31998 14.6667 7.99998 14.6667C11.68 14.6667 14.6666 11.68 14.6666 8C14.6666 4.32 11.68 1.33333 7.99998 1.33333ZM4.71331 12.1867C4.99998 11.5867 6.74665 11 7.99998 11C9.25331 11 11.0066 11.5867 11.2866 12.1867C10.38 12.9067 9.23998 13.3333 7.99998 13.3333C6.75998 13.3333 5.61998 12.9067 4.71331 12.1867ZM12.24 11.22C11.2866 10.06 8.97331 9.66667 7.99998 9.66667C7.02665 9.66667 4.71331 10.06 3.75998 11.22C3.07998 10.3267 2.66665 9.21333 2.66665 8C2.66665 5.06 5.05998 2.66667 7.99998 2.66667C10.94 2.66667 13.3333 5.06 13.3333 8C13.3333 9.21333 12.92 10.3267 12.24 11.22ZM7.99998 4C6.70665 4 5.66665 5.04 5.66665 6.33333C5.66665 7.62667 6.70665 8.66667 7.99998 8.66667C9.29331 8.66667 10.3333 7.62667 10.3333 6.33333C10.3333 5.04 9.29331 4 7.99998 4ZM7.99998 7.33333C7.44665 7.33333 6.99998 6.88667 6.99998 6.33333C6.99998 5.78 7.44665 5.33333 7.99998 5.33333C8.55331 5.33333 8.99998 5.78 8.99998 6.33333C8.99998 6.88667 8.55331 7.33333 7.99998 7.33333Z" fill="currentColor"/>
</svg>
