<svg width="28" height="36" viewBox="0 0 28 36" fill="none" xmlns="http://www.w3.org/2000/svg">
<path d="M23.9998 12.3334H22.3332V9.00002C22.3332 4.40002 18.5998 0.666687 13.9998 0.666687C9.39984 0.666687 5.6665 4.40002 5.6665 9.00002V12.3334H3.99984C2.1665 12.3334 0.666504 13.8334 0.666504 15.6667V32.3334C0.666504 34.1667 2.1665 35.6667 3.99984 35.6667H23.9998C25.8332 35.6667 27.3332 34.1667 27.3332 32.3334V15.6667C27.3332 13.8334 25.8332 12.3334 23.9998 12.3334ZM8.99984 9.00002C8.99984 6.23335 11.2332 4.00002 13.9998 4.00002C16.7665 4.00002 18.9998 6.23335 18.9998 9.00002V12.3334H8.99984V9.00002ZM23.9998 32.3334H3.99984V15.6667H23.9998V32.3334ZM13.9998 27.3334C15.8332 27.3334 17.3332 25.8334 17.3332 24C17.3332 22.1667 15.8332 20.6667 13.9998 20.6667C12.1665 20.6667 10.6665 22.1667 10.6665 24C10.6665 25.8334 12.1665 27.3334 13.9998 27.3334Z" fill="#00979D"/>
</svg>
