<svg width="16" height="17" viewBox="0 0 16 17" fill="none" xmlns="http://www.w3.org/2000/svg">
<path d="M14.722 8.0972C14.1727 6.94002 13.519 5.99627 12.761 5.26595L11.966 6.06095C12.6143 6.68048 13.179 7.49095 13.6673 8.50033C12.3673 11.191 10.522 12.4691 8.00009 12.4691C7.24311 12.4691 6.54587 12.3525 5.90837 12.1194L5.04696 12.9808C5.93238 13.3897 6.91676 13.5941 8.00009 13.5941C11.0032 13.5941 13.2438 12.03 14.722 8.90189C14.7814 8.77609 14.8122 8.63868 14.8122 8.49955C14.8122 8.36041 14.7814 8.22301 14.722 8.0972V8.0972ZM13.7287 3.0872L13.0626 2.42033C13.051 2.40871 13.0372 2.39949 13.022 2.3932C13.0068 2.3869 12.9906 2.38367 12.9742 2.38367C12.9577 2.38367 12.9415 2.3869 12.9263 2.3932C12.9111 2.39949 12.8973 2.40871 12.8857 2.42033L11.1768 4.12845C10.2346 3.6472 9.17571 3.40658 8.00009 3.40658C4.99696 3.40658 2.75634 4.97064 1.27822 8.09877C1.2188 8.22457 1.18799 8.36198 1.18799 8.50111C1.18799 8.64024 1.2188 8.77765 1.27822 8.90345C1.86874 10.1472 2.57967 11.1441 3.41103 11.8942L1.75759 13.5472C1.73417 13.5706 1.72101 13.6024 1.72101 13.6356C1.72101 13.6687 1.73417 13.7005 1.75759 13.7239L2.42462 14.391C2.44806 14.4144 2.47984 14.4275 2.51298 14.4275C2.54612 14.4275 2.5779 14.4144 2.60134 14.391L13.7287 3.26408C13.7403 3.25247 13.7495 3.23868 13.7558 3.22351C13.7621 3.20833 13.7653 3.19207 13.7653 3.17564C13.7653 3.15921 13.7621 3.14295 13.7558 3.12777C13.7495 3.1126 13.7403 3.09881 13.7287 3.0872ZM2.3329 8.50033C3.63447 5.8097 5.47978 4.53158 8.00009 4.53158C8.85228 4.53158 9.62712 4.67783 10.3301 4.97517L9.23165 6.07361C8.71145 5.79605 8.1158 5.69304 7.5326 5.77977C6.94939 5.86651 6.4095 6.13839 5.99258 6.55532C5.57565 6.97224 5.30377 7.51213 5.21704 8.09534C5.1303 8.67854 5.23331 9.27418 5.51087 9.79439L4.20743 11.0978C3.48603 10.4611 2.86415 9.59845 2.3329 8.50033ZM6.18759 8.50033C6.18786 8.2248 6.25313 7.95323 6.37808 7.70767C6.50302 7.4621 6.68414 7.24948 6.9067 7.08706C7.12926 6.92464 7.387 6.81702 7.65898 6.77293C7.93095 6.72883 8.20949 6.74952 8.47196 6.8333L6.27056 9.0347C6.21538 8.86195 6.18739 8.68168 6.18759 8.50033V8.50033Z" fill="#595959"/>
<path d="M7.93761 10.2502C7.88355 10.2502 7.83027 10.2477 7.77746 10.2428L6.95215 11.0681C7.44854 11.2582 7.98937 11.3005 8.50925 11.1898C9.02914 11.079 9.50583 10.8201 9.88169 10.4442C10.2575 10.0684 10.5165 9.5917 10.6272 9.07182C10.7379 8.55193 10.6957 8.0111 10.5056 7.51471L9.68027 8.34002C9.68511 8.39283 9.68761 8.44611 9.68761 8.50018C9.68773 8.73002 9.64255 8.95764 9.55465 9.17002C9.46675 9.38239 9.33785 9.57536 9.17532 9.73788C9.0128 9.90041 8.81983 10.0293 8.60745 10.1172C8.39508 10.2051 8.16746 10.2503 7.93761 10.2502V10.2502Z" fill="#595959"/>
</svg>
