<svg width="285" height="160" viewBox="0 0 285 160" fill="none" xmlns="http://www.w3.org/2000/svg">
<path d="M94.861 137.159L93.2581 138.763C92.3232 139.698 92.9613 141.302 94.2822 141.362C98.126 141.51 101.542 144.391 101.126 147.435L80.8511 147.554L74.2023 143.975L73.3415 133.803L66.0842 139.491L60.8899 132.674L79.8715 118.15L94.861 137.159Z" fill="white"/>
<path d="M80.851 148C80.7774 148 80.7049 147.982 80.6401 147.947L73.9913 144.368C73.9261 144.333 73.8707 144.282 73.83 144.22C73.7894 144.158 73.7649 144.087 73.7586 144.013L72.9673 134.662L66.3587 139.841C66.3123 139.878 66.2592 139.904 66.2023 139.92C66.1455 139.936 66.0861 139.94 66.0276 139.932C65.9692 139.925 65.9128 139.906 65.8617 139.876C65.8107 139.847 65.766 139.808 65.7302 139.761L60.5359 132.944C60.4644 132.85 60.4331 132.732 60.4488 132.615C60.4644 132.498 60.5258 132.392 60.6194 132.32L79.6011 117.796C79.6939 117.725 79.811 117.693 79.927 117.708C80.0429 117.723 80.1485 117.782 80.221 117.874L95.2104 136.883C95.278 136.969 95.3117 137.076 95.3053 137.185C95.2989 137.294 95.2528 137.397 95.1757 137.474L93.5728 139.078C93.4239 139.223 93.3217 139.409 93.2794 139.613C93.2371 139.816 93.2566 140.028 93.3354 140.22C93.4104 140.419 93.5421 140.59 93.714 140.714C93.8859 140.838 94.0904 140.909 94.3021 140.917C96.6443 141.007 98.9631 142.091 100.35 143.745C101.309 144.889 101.741 146.221 101.567 147.496C101.553 147.602 101.501 147.699 101.42 147.77C101.339 147.841 101.236 147.88 101.129 147.881L80.8537 148L80.851 148ZM74.6255 143.697L80.9626 147.108L100.716 146.992C100.74 145.854 100.176 144.922 99.6691 144.319C98.4382 142.851 96.3677 141.889 94.2656 141.808C93.8805 141.794 93.5081 141.666 93.1951 141.441C92.882 141.216 92.6423 140.904 92.5059 140.543C92.3651 140.19 92.3316 139.803 92.4095 139.43C92.4874 139.058 92.6733 138.716 92.944 138.449L94.267 137.125L79.7936 118.77L61.5132 132.758L66.1645 138.861L73.0669 133.452C73.1301 133.402 73.2055 133.371 73.2851 133.361C73.3648 133.351 73.4457 133.362 73.5193 133.394C73.5929 133.426 73.6564 133.478 73.7032 133.543C73.75 133.608 73.7783 133.685 73.785 133.765L74.6255 143.697Z" fill="#262626"/>
<path d="M130.734 95.959C130.734 95.959 131.902 108.339 131.884 109.046L107.397 130.016L94.8608 137.159L79.8713 118.165L105.561 102.126L105.616 94.2558L106.885 73.9763L128.075 67.3002L164.139 100.611L191.09 125.516C193.479 127.858 194.841 131.054 194.876 134.401C194.912 137.747 193.619 140.971 191.28 143.364C188.942 145.757 185.75 147.124 182.406 147.163C179.061 147.202 175.838 145.912 173.444 143.574L164.124 134.887L131.518 104.492" fill="white"/>
<path d="M182.259 147.614C178.847 147.62 175.569 146.284 173.133 143.893L163.82 135.213L132.064 105.609C132.222 107.418 132.335 108.819 132.329 109.057C132.328 109.119 132.313 109.181 132.286 109.237C132.259 109.293 132.221 109.343 132.174 109.384L107.686 130.353C107.665 130.372 107.641 130.388 107.617 130.402L95.0805 137.545C94.988 137.598 94.8796 137.616 94.7751 137.596C94.6705 137.575 94.5768 137.518 94.5108 137.434L79.5214 118.44C79.4825 118.391 79.4545 118.334 79.4392 118.273C79.4238 118.212 79.4214 118.149 79.4321 118.087C79.4429 118.026 79.4665 117.967 79.5015 117.915C79.5365 117.863 79.5821 117.819 79.6352 117.786L105.117 101.877L105.17 94.252C105.17 94.2438 105.17 94.2355 105.171 94.2273L106.44 73.9478C106.446 73.858 106.479 73.7719 106.534 73.701C106.59 73.6301 106.665 73.5777 106.751 73.5507L127.941 66.8752C128.016 66.8516 128.096 66.8482 128.172 66.8653C128.249 66.8824 128.319 66.9195 128.377 66.9727L164.441 100.283L191.392 125.188C193.248 127.005 194.522 129.334 195.05 131.878C195.578 134.422 195.337 137.066 194.357 139.472C193.377 141.878 191.703 143.938 189.548 145.388C187.394 146.838 184.856 147.612 182.26 147.613L182.259 147.614ZM131.947 104.282L173.747 143.248C174.887 144.38 176.24 145.275 177.727 145.881C179.214 146.488 180.806 146.794 182.412 146.782C184.018 146.77 185.605 146.44 187.083 145.812C188.561 145.184 189.9 144.269 191.023 143.12C192.146 141.972 193.031 140.613 193.627 139.121C194.223 137.628 194.518 136.033 194.496 134.426C194.473 132.82 194.133 131.233 193.495 129.759C192.857 128.284 191.933 126.95 190.778 125.834L163.836 100.937L127.963 67.8027L107.31 74.3097L106.061 94.2718L106.006 102.129C106.006 102.204 105.986 102.277 105.95 102.343C105.913 102.409 105.86 102.464 105.797 102.503L80.5291 118.279L94.9729 136.582L107.14 129.649L131.433 108.846C131.401 108.274 131.261 106.613 131.076 104.537C131.076 104.533 131.076 104.529 131.075 104.525C130.841 101.891 130.535 98.5916 130.291 96.0007C130.28 95.883 130.316 95.7658 130.391 95.6747C130.466 95.5837 130.575 95.5263 130.692 95.5151C130.81 95.504 130.927 95.5401 131.018 95.6154C131.109 95.6907 131.166 95.7991 131.177 95.9168C131.247 96.6639 131.64 100.831 131.947 104.282Z" fill="#262626"/>
<path d="M132.275 108.601H127.927V108.482C127.931 106.076 126.988 103.766 125.302 102.051C125.13 101.876 125.919 111.079 123.52 110.702C122.244 110.742 122.337 108.6 122.096 108.6H113.412V108.482C113.408 107.332 113.78 106.212 114.469 105.293C114.51 105.275 114.524 105.261 114.498 105.253C114.539 105.199 114.455 105.178 114.287 105.18C112.223 104.374 112.505 101.73 112.334 101.896C111.451 102.75 110.75 103.773 110.272 104.905C109.794 106.036 109.55 107.253 109.553 108.482V108.601H105.205C103.875 108.602 102.6 109.131 101.66 110.072C100.719 111.013 100.19 112.289 100.189 113.62V125.441C100.19 126.772 100.719 128.048 101.66 128.989C102.6 129.93 103.875 130.46 105.205 130.461H132.275C133.605 130.46 134.88 129.93 135.82 128.989C136.761 128.048 137.29 126.772 137.291 125.441V113.62C137.29 112.289 136.761 111.013 135.82 110.072C134.88 109.131 133.605 108.602 132.275 108.601Z" fill="#F08229"/>
<path d="M105.769 105.452C105.656 105.452 105.548 105.409 105.466 105.333C105.384 105.256 105.333 105.151 105.325 105.039L105.118 102.158C105.11 102.041 105.15 101.925 105.227 101.837C105.304 101.749 105.413 101.695 105.53 101.686C105.647 101.678 105.762 101.716 105.851 101.792C105.94 101.868 105.996 101.977 106.006 102.093L106.213 104.974C106.222 105.092 106.183 105.209 106.106 105.298C106.029 105.387 105.919 105.442 105.801 105.451C105.79 105.452 105.779 105.452 105.769 105.452Z" fill="#262626"/>
<path d="M128.06 67.3003L126.733 58.8399L127.689 64.3662C127.689 64.3662 132.072 65.1992 138.914 66.6476C138.914 66.6476 154.943 67.3901 162.948 67.5783L164.643 67.6567L166.677 67.731H166.988C169.126 67.7272 171.177 66.885 172.7 65.3851C174.224 63.8851 175.1 61.8471 175.138 59.7085C175.177 57.57 174.377 55.5015 172.908 53.9471C171.44 52.3927 169.421 51.4764 167.285 51.395L164.124 51.2761H163.159C156.003 51.1218 141.343 50.5548 141.343 50.5548L141.141 50.4601C134.61 49.1235 119 46.0289 119 46.0289C117.522 45.7887 116.006 45.9546 114.614 46.509L113.694 46.8757L104.425 50.5681L102.163 51.4692C99.5954 52.4642 96.8541 54.1961 95.6922 57.5135L88.2717 76.9682C87.5605 78.8334 87.5558 80.8945 88.2584 82.7629C88.961 84.6313 90.3223 86.178 92.0858 87.1114L108.173 95.6061C109.02 96.0613 109.942 96.3586 110.895 96.4835L120.116 87.6778C119.998 86.3148 119.54 85.0032 118.784 83.8636C118.028 82.7239 116.997 81.7929 115.787 81.1562L106.096 76.0475L110.949 63.3499L106.912 74.0193L128.06 67.3003Z" fill="white"/>
<path d="M110.895 96.9289C110.876 96.9289 110.856 96.9276 110.837 96.9251C109.831 96.7928 108.857 96.4789 107.963 95.9987L91.878 87.5053C90.0203 86.5192 88.5864 84.8881 87.8458 82.9186C87.1052 80.949 87.1088 78.7767 87.8561 76.8097L95.2766 57.355C96.2686 54.5226 98.5329 52.3988 102.002 51.054L114.45 46.0955C115.917 45.5132 117.514 45.3384 119.072 45.5895C119.077 45.5895 119.082 45.5913 119.086 45.5922C119.243 45.6232 134.773 48.7024 141.229 50.024C141.263 50.031 141.297 50.042 141.328 50.0568L141.449 50.1134C142.693 50.1612 156.388 50.6848 163.168 50.831H164.124C164.13 50.831 164.135 50.831 164.141 50.831L167.302 50.9498C169.556 51.0336 171.687 51.999 173.237 53.6385C174.787 55.278 175.633 57.4606 175.591 59.7173C175.55 61.9739 174.626 64.1243 173.017 65.7062C171.409 67.2882 169.244 68.1753 166.988 68.1768H166.677H166.66L164.627 68.1026L162.927 68.024C155.018 67.8382 139.054 67.1007 138.893 67.0933C138.869 67.0923 138.845 67.0892 138.822 67.0841C133.408 65.9382 129.499 65.1707 128.135 64.9064L128.5 67.2319C128.517 67.3371 128.495 67.4447 128.439 67.5352C128.383 67.6258 128.296 67.6933 128.195 67.7255L107.204 74.3936L106.653 75.8374L115.995 80.7618C117.272 81.4321 118.359 82.4136 119.157 83.6156C119.955 84.8176 120.437 86.2013 120.559 87.6391C120.565 87.7056 120.556 87.7726 120.532 87.8351C120.509 87.8976 120.472 87.954 120.423 88.0001L111.202 96.8057C111.12 96.8848 111.01 96.9289 110.895 96.9289ZM117.682 46.368C116.688 46.3687 115.702 46.557 114.778 46.9233L102.327 51.8835C99.0622 53.1488 97.0308 55.0382 96.112 57.6612L88.6872 77.127C88.0171 78.8908 88.0139 80.8386 88.678 82.6046C89.342 84.3706 90.6278 85.8331 92.2935 86.7173L108.381 95.212C109.119 95.6087 109.918 95.8788 110.745 96.0112L119.651 87.5057C119.51 86.2558 119.065 85.0594 118.355 84.0212C117.645 82.9831 116.692 82.1348 115.579 81.5505L105.888 76.4418C105.792 76.3909 105.717 76.3065 105.679 76.2046C105.641 76.1026 105.641 75.9902 105.68 75.8885L110.533 63.1909C110.554 63.1363 110.585 63.0862 110.625 63.0436C110.665 63.0011 110.714 62.9669 110.767 62.9429C110.82 62.9189 110.878 62.9057 110.936 62.904C110.995 62.9023 111.053 62.9122 111.107 62.933C111.162 62.9538 111.212 62.9852 111.255 63.0253C111.297 63.0655 111.331 63.1136 111.355 63.167C111.379 63.2204 111.392 63.278 111.394 63.3364C111.396 63.3949 111.386 63.4532 111.365 63.5079L107.654 73.3158L127.561 66.9913L126.293 58.9094C126.274 58.7928 126.302 58.6734 126.371 58.5773C126.44 58.4813 126.544 58.4165 126.66 58.3973C126.777 58.378 126.896 58.4059 126.992 58.4747C127.088 58.5436 127.153 58.6477 127.172 58.7643L128.076 63.9871C129.18 64.2002 133.228 64.9892 138.971 66.2048C139.829 66.2443 155.232 66.9518 162.958 67.1333L164.665 67.2121L166.686 67.2864H166.988C169.01 67.2847 170.951 66.4893 172.393 65.071C173.835 63.6527 174.664 61.7248 174.701 59.7017C174.738 57.6787 173.98 55.7219 172.59 54.2521C171.2 52.7822 169.29 51.9167 167.269 51.8414L164.116 51.7226H163.159C156.072 51.57 141.473 51.0067 141.326 51.0009C141.267 50.9986 141.209 50.9845 141.155 50.9594L141 50.8871C134.572 49.5719 119.339 46.5506 118.921 46.4684C118.511 46.4018 118.097 46.3682 117.682 46.368Z" fill="#262626"/>
<path d="M107.743 85.7895C107.146 86.8915 106.886 88.1445 106.994 89.3931C107.102 90.6418 107.574 91.8312 108.351 92.814C110.399 95.3387 111.987 96.7198 112.744 102.512C113.041 104.799 113.961 105.066 114.674 105.036C116.187 104.962 116.633 103.551 116.633 102.734C116.737 104.175 117.345 105.111 118.74 105.036C119.305 105.012 119.84 104.772 120.234 104.366C120.628 103.96 120.853 103.419 120.862 102.853C122.287 108.927 121.857 110.798 123.741 110.591C126.843 110.249 124.647 97.6257 122.732 93.4675C121.263 90.2894 120.046 87.0667 118.072 83.9629C115.653 80.1908 109.346 82.8491 107.743 85.7895Z" fill="white"/>
<path d="M123.462 111.053C122.002 111.053 121.768 109.773 121.291 107.173C121.15 106.401 120.984 105.499 120.76 104.437C120.527 104.75 120.227 105.007 119.881 105.188C119.535 105.369 119.153 105.469 118.763 105.481C118.129 105.514 117.174 105.376 116.617 104.385C116.413 104.713 116.131 104.985 115.795 105.176C115.46 105.368 115.082 105.473 114.696 105.481C113.346 105.537 112.565 104.585 112.303 102.569C111.637 97.4743 110.363 95.9393 108.599 93.8149C108.406 93.5824 108.208 93.3442 108.005 93.0949C107.17 92.0444 106.663 90.7711 106.547 89.4339C106.431 88.0967 106.711 86.7549 107.352 85.576C108.478 83.5117 111.552 81.7549 114.207 81.6603C116.072 81.5948 117.539 82.3069 118.447 83.7223C119.943 86.0754 121.021 88.5199 122.063 90.8839C122.41 91.671 122.769 92.4847 123.136 93.2804C124.786 96.8627 126.768 107.117 125.087 110.091C124.689 110.796 124.162 110.992 123.79 111.033C123.681 111.046 123.572 111.052 123.462 111.053ZM120.863 102.408C120.963 102.408 121.06 102.442 121.139 102.504C121.217 102.567 121.273 102.654 121.296 102.751C121.707 104.504 121.962 105.895 122.167 107.013C122.705 109.948 122.847 110.242 123.692 110.148C123.781 110.138 124.054 110.108 124.312 109.652C125.753 107.102 124.059 97.4138 122.328 93.6539C121.957 92.8519 121.596 92.0341 121.248 91.2436C120.219 88.9099 119.155 86.4969 117.696 84.2022C116.777 82.7684 115.309 82.5138 114.238 82.5507C111.904 82.6339 109.109 84.2148 108.134 86.0028C107.577 87.0261 107.333 88.1912 107.433 89.3524C107.533 90.5136 107.973 91.6196 108.697 92.5322C108.898 92.7793 109.093 93.015 109.284 93.245C111.074 95.4005 112.487 97.1029 113.186 102.454C113.47 104.64 114.301 104.606 114.656 104.591C116.171 104.517 116.188 102.807 116.188 102.734C116.188 102.619 116.233 102.508 116.313 102.425C116.393 102.342 116.502 102.294 116.617 102.29C116.732 102.286 116.845 102.326 116.931 102.403C117.016 102.48 117.069 102.587 117.077 102.702C117.205 104.467 118.074 104.626 118.717 104.591C119.168 104.576 119.596 104.387 119.912 104.066C120.229 103.744 120.409 103.313 120.418 102.861C120.416 102.751 120.455 102.644 120.527 102.561C120.599 102.478 120.699 102.425 120.808 102.411C120.826 102.409 120.844 102.408 120.863 102.408Z" fill="#262626"/>
<path d="M144.563 52.6126C144.495 52.6126 144.427 52.5966 144.365 52.5659L140.942 50.8587C140.838 50.8055 140.758 50.713 140.721 50.6013C140.684 50.4897 140.693 50.368 140.745 50.2628C140.798 50.1576 140.89 50.0773 141.001 50.0396C141.112 50.0018 141.234 50.0096 141.339 50.0612L144.763 51.7691C144.852 51.8139 144.925 51.8878 144.967 51.9787C145.01 52.0696 145.02 52.1723 144.997 52.2701C144.974 52.3678 144.919 52.4549 144.84 52.5172C144.762 52.5796 144.664 52.6134 144.564 52.6134L144.563 52.6126Z" fill="#262626"/>
<path d="M110.45 30.3808C110.071 29.1115 109.35 27.971 108.366 27.0839L97.2651 31.397L100.827 41.844L104.76 51.3651C105.272 52.5704 106.237 53.5255 107.448 54.0238C108.658 54.5221 110.016 54.5235 111.227 54.0277C112.439 53.5319 113.406 52.5788 113.921 51.3745C114.435 50.1703 114.455 48.8118 113.976 47.593L112.682 44.3035C113.405 43.6065 113.977 42.7684 114.363 41.841C114.749 40.9137 114.94 39.9169 114.925 38.9125C114.91 37.9081 114.689 36.9175 114.276 36.0021C113.862 35.0868 113.265 34.2662 112.522 33.5912L110.45 30.3808Z" fill="white"/>
<path d="M109.37 54.8427C108.303 54.8427 107.258 54.5299 106.366 53.9429C105.474 53.3559 104.773 52.5204 104.35 51.5394L100.415 42.0142C100.411 42.0056 100.408 41.9967 100.405 41.9879L96.8432 31.5407C96.8061 31.4319 96.8125 31.313 96.8609 31.2088C96.9094 31.1046 96.9963 31.0232 97.1033 30.9816L108.204 26.6686C108.281 26.6388 108.365 26.6308 108.446 26.6456C108.527 26.6604 108.602 26.6974 108.663 26.7525C109.691 27.6801 110.449 28.8684 110.857 30.1917L112.864 33.3013C113.653 34.0307 114.284 34.9156 114.715 35.9004C115.147 36.8852 115.37 37.9486 115.371 39.024C115.378 41.034 114.6 42.9672 113.203 44.4117L114.391 47.4297C114.653 48.0925 114.782 48.8006 114.77 49.5134C114.758 50.2261 114.606 50.9295 114.322 51.5833C114.038 52.2371 113.628 52.8284 113.115 53.3233C112.603 53.8183 111.997 54.2072 111.334 54.4677C110.709 54.7157 110.043 54.843 109.37 54.8427ZM101.242 41.6867L105.17 51.1949C105.638 52.2787 106.507 53.1389 107.596 53.5946C108.684 54.0504 109.907 54.0663 111.006 53.6389C111.561 53.4214 112.067 53.0966 112.496 52.683C112.924 52.2694 113.267 51.7751 113.505 51.2286C113.742 50.6821 113.869 50.094 113.879 49.4982C113.889 48.9023 113.781 48.3104 113.562 47.7563L112.268 44.4661C112.236 44.3841 112.228 44.2943 112.247 44.2083C112.266 44.1222 112.31 44.0436 112.373 43.9824C113.042 43.342 113.574 42.5722 113.936 41.7198C114.298 40.8674 114.484 39.9502 114.481 39.024C114.48 38.063 114.278 37.1128 113.889 36.2341C113.501 35.3554 112.933 34.5677 112.222 33.9212C112.194 33.8951 112.169 33.8654 112.148 33.833L110.076 30.6231C110.054 30.588 110.036 30.55 110.024 30.5101C109.693 29.4071 109.089 28.406 108.266 27.6005L97.8243 31.6579L101.242 41.6867Z" fill="#262626"/>
<path d="M96.2077 35.2921C95.7897 34.2058 95.6226 33.039 95.7189 31.879C95.8152 30.7189 96.1724 29.5957 96.7638 28.5933C96.5645 28.1099 96.4626 27.5919 96.4638 27.069C96.464 26.3956 96.6336 25.7331 96.9569 25.1425C97.2803 24.5519 97.7471 24.0523 98.3143 23.6898C98.8814 23.3273 99.5307 23.1136 100.202 23.0682C100.874 23.0229 101.546 23.1475 102.156 23.4306C102.33 22.6281 102.727 21.8911 103.301 21.3048C103.876 20.7186 104.604 20.3069 105.403 20.1174C106.201 19.928 107.037 19.9684 107.813 20.2341C108.59 20.4998 109.275 20.9799 109.79 21.6189C110.306 22.2579 110.63 23.0298 110.725 23.8453C110.821 24.6608 110.683 25.4867 110.33 26.2276C109.976 26.9684 109.42 27.594 108.726 28.0319C108.032 28.4699 107.228 28.7024 106.407 28.7026C106.262 28.7025 106.116 28.6949 105.971 28.6799L100.664 31.3396C100.205 31.5712 100.338 32.0869 100.507 32.4543L102.037 35.8431C100.382 34.7321 98.1358 33.9682 96.2077 35.2921Z" fill="#00979D"/>
<path d="M101.124 41.6442C100.53 42.2382 99.416 42.5288 98.5859 42.5288C97.8503 42.5286 97.129 42.3258 96.5009 41.9425C95.8728 41.5592 95.3623 41.0104 95.0253 40.3561C94.6883 39.7018 94.5378 38.9672 94.5903 38.233C94.6428 37.4988 94.8962 36.7931 95.3229 36.1935C95.7495 35.5938 96.3329 35.1233 97.0091 34.8334C97.6853 34.5435 98.4281 34.4454 99.1563 34.55C99.8845 34.6545 100.57 34.9577 101.137 35.4261C101.705 35.8946 102.132 36.5103 102.373 37.2058" fill="white"/>
<path d="M98.586 42.9744C97.7686 42.9742 96.9671 42.7488 96.2692 42.323C95.5713 41.8972 95.004 41.2874 94.6296 40.5604C94.2551 39.8333 94.0878 39.0172 94.1461 38.2014C94.2044 37.3855 94.486 36.6015 94.9601 35.9352C95.4341 35.2689 96.0823 34.746 96.8336 34.4239C97.585 34.1018 98.4104 33.9928 99.2195 34.109C100.029 34.2252 100.79 34.562 101.421 35.0825C102.051 35.603 102.526 36.2872 102.794 37.06C102.814 37.1155 102.823 37.1744 102.82 37.2333C102.817 37.2921 102.802 37.3498 102.777 37.403C102.751 37.4562 102.715 37.5038 102.672 37.5431C102.628 37.5824 102.576 37.6126 102.521 37.6319C102.465 37.6512 102.406 37.6592 102.347 37.6556C102.288 37.6519 102.231 37.6366 102.178 37.6105C102.125 37.5845 102.078 37.5482 102.039 37.5037C102.001 37.4593 101.971 37.4076 101.953 37.3517C101.738 36.7335 101.358 36.1862 100.854 35.7698C100.349 35.3534 99.7403 35.084 99.093 34.991C98.4458 34.8981 97.7854 34.9853 97.1844 35.2429C96.5834 35.5006 96.0648 35.9189 95.6856 36.4519C95.3063 36.9849 95.081 37.6121 95.0344 38.2648C94.9877 38.9174 95.1215 39.5703 95.421 40.152C95.7206 40.7336 96.1744 41.2214 96.7326 41.5621C97.2909 41.9028 97.9321 42.0831 98.586 42.0833C99.316 42.0833 100.314 41.8242 100.809 41.3291C100.892 41.2455 101.006 41.1986 101.124 41.1986C101.242 41.1986 101.355 41.2455 101.439 41.3291C101.522 41.4126 101.569 41.5259 101.569 41.6441C101.569 41.7623 101.522 41.8756 101.439 41.9592C100.738 42.6604 99.5008 42.9744 98.586 42.9744Z" fill="#262626"/>
<path d="M108.01 35.9052C107.905 35.9053 107.803 35.8682 107.723 35.8006C107.643 35.7329 107.589 35.639 107.571 35.5355C107.553 35.432 107.572 35.3254 107.625 35.2348C107.678 35.1441 107.762 35.075 107.861 35.0399L109.285 34.5321L107.549 31.8875C107.517 31.8386 107.495 31.7838 107.484 31.7263C107.473 31.6689 107.473 31.6098 107.485 31.5524C107.497 31.4951 107.52 31.4407 107.552 31.3922C107.585 31.3438 107.627 31.3023 107.676 31.2701C107.725 31.2379 107.78 31.2157 107.837 31.2047C107.895 31.1937 107.954 31.1941 108.011 31.2059C108.068 31.2177 108.123 31.2407 108.171 31.2736C108.219 31.3064 108.261 31.3485 108.293 31.3974L110.341 34.5161C110.378 34.5725 110.402 34.6366 110.411 34.7035C110.419 34.7704 110.413 34.8385 110.391 34.9025C110.37 34.9664 110.334 35.0247 110.287 35.0729C110.24 35.1211 110.182 35.1579 110.119 35.1805L108.159 35.8785C108.112 35.896 108.061 35.905 108.01 35.9052Z" fill="#262626"/>
<path d="M105.25 34.5985C105.676 34.5985 106.021 34.2528 106.021 33.8263C106.021 33.3998 105.676 33.054 105.25 33.054C104.823 33.054 104.478 33.3998 104.478 33.8263C104.478 34.2528 104.823 34.5985 105.25 34.5985Z" fill="#262626"/>
<path d="M109.982 40.4705C108.977 40.4705 107.853 39.8268 107.284 38.3857C107.262 38.3288 107.251 38.2678 107.253 38.2067C107.256 38.1455 107.27 38.0855 107.297 38.0302C107.323 37.975 107.36 37.9258 107.406 37.8857C107.453 37.8455 107.507 37.8154 107.565 37.797L111.438 36.5792C111.494 36.5616 111.553 36.5553 111.612 36.5606C111.67 36.5659 111.727 36.5827 111.779 36.6101C111.831 36.6374 111.877 36.6748 111.915 36.7201C111.952 36.7653 111.98 36.8176 111.998 36.8737C112.575 38.7608 111.767 39.9792 110.709 40.3496C110.475 40.4305 110.229 40.4714 109.982 40.4705ZM108.322 38.4934C108.873 39.4502 109.752 39.7408 110.416 39.5086C110.957 39.3189 111.458 38.7031 111.254 37.5714L108.322 38.4934Z" fill="#262626"/>
<path d="M112.225 33.7371C111.879 33.8846 111.508 33.9624 111.132 33.9661C110.756 33.9698 110.383 33.8993 110.034 33.7586C109.685 33.6179 109.367 33.4098 109.099 33.1462C108.831 32.8826 108.617 32.5687 108.47 32.2224L108.114 31.3759L113.383 29.1334L113.739 29.9799C113.887 30.3259 113.965 30.6978 113.969 31.0742C113.973 31.4506 113.903 31.8241 113.762 32.1733C113.621 32.5224 113.413 32.8403 113.149 33.1087C112.886 33.377 112.572 33.5906 112.225 33.7371Z" fill="white"/>
<path d="M111.104 34.4147C110.456 34.4129 109.822 34.2209 109.281 33.8624C108.74 33.504 108.316 32.9948 108.061 32.3978L107.704 31.5487C107.658 31.44 107.657 31.3176 107.701 31.2084C107.746 31.0991 107.831 31.0119 107.94 30.9658L113.208 28.7233C113.262 28.7003 113.32 28.6883 113.379 28.6878C113.437 28.6874 113.496 28.6985 113.55 28.7206C113.604 28.7426 113.654 28.7752 113.695 28.8165C113.737 28.8577 113.77 28.9068 113.793 28.9609L114.149 29.8074C114.361 30.311 114.446 30.8594 114.396 31.4037C114.345 31.948 114.161 32.4714 113.86 32.9274C113.559 33.3834 113.15 33.7578 112.669 34.0174C112.188 34.2769 111.651 34.4136 111.104 34.4152V34.4147ZM108.696 31.6121L108.88 32.0494C109.005 32.3419 109.186 32.6071 109.413 32.8296C109.639 33.0521 109.908 33.2277 110.203 33.3464C110.496 33.4662 110.811 33.5263 111.128 33.5231C111.445 33.5199 111.758 33.4534 112.049 33.3276L112.053 33.326C112.345 33.2022 112.61 33.0218 112.833 32.7953C113.055 32.5688 113.231 32.3005 113.349 32.0059C113.468 31.7113 113.527 31.3962 113.524 31.0786C113.52 30.7611 113.454 30.4473 113.329 30.1553L113.145 29.7183L108.696 31.6121Z" fill="#262626"/>
<path d="M104.728 37.1152C104.079 37.1146 103.444 36.9234 102.902 36.5653C102.36 36.2072 101.935 35.698 101.679 35.1007L101.322 34.2515C101.276 34.1429 101.275 34.0205 101.32 33.9113C101.364 33.802 101.45 33.7148 101.558 33.6686L106.827 31.4261C106.881 31.4032 106.939 31.3912 106.997 31.3907C107.056 31.3902 107.114 31.4014 107.168 31.4234C107.223 31.4455 107.272 31.4781 107.314 31.5194C107.355 31.5606 107.389 31.6097 107.411 31.6638L107.767 32.5103C108.109 33.3179 108.117 34.2283 107.789 35.0418C107.462 35.8552 106.825 36.5055 106.019 36.8499C105.611 37.025 105.172 37.1153 104.728 37.1152ZM102.315 34.3149L102.499 34.7523C102.752 35.3402 103.227 35.804 103.82 36.0421C104.414 36.2802 105.078 36.2732 105.666 36.0226C106.255 35.7721 106.72 35.2983 106.96 34.7052C107.2 34.1121 107.196 33.4479 106.948 32.8581L106.763 32.4212L102.315 34.3149Z" fill="#262626"/>
<path d="M107.001 32.2817C106.898 32.2818 106.798 32.2461 106.718 32.1807C106.638 32.1153 106.584 32.0243 106.563 31.9231C106.543 31.8219 106.559 31.7169 106.608 31.6259C106.656 31.535 106.735 31.4637 106.83 31.4244L108.121 30.8897C108.176 30.8669 108.234 30.855 108.292 30.8547C108.351 30.8545 108.409 30.8658 108.464 30.8881C108.518 30.9105 108.567 30.9433 108.609 30.9848C108.65 31.0263 108.683 31.0756 108.706 31.1299C108.728 31.1842 108.74 31.2424 108.74 31.3012C108.74 31.3599 108.728 31.4181 108.705 31.4723C108.682 31.5265 108.649 31.5757 108.608 31.617C108.566 31.6583 108.516 31.691 108.462 31.7131L107.171 32.2477C107.117 32.2701 107.059 32.2817 107.001 32.2817Z" fill="#262626"/>
<path d="M107.635 46.799C106.668 46.7981 105.709 46.6191 104.807 46.2709C104.752 46.2498 104.702 46.2181 104.66 46.1777C104.618 46.1373 104.584 46.089 104.56 46.0354C104.536 45.9819 104.523 45.9242 104.522 45.8656C104.521 45.8071 104.531 45.7489 104.552 45.6943C104.573 45.6397 104.605 45.5898 104.645 45.5474C104.685 45.505 104.734 45.471 104.787 45.4474C104.841 45.4237 104.898 45.4108 104.957 45.4094C105.015 45.408 105.074 45.4182 105.128 45.4393C106.498 45.9788 108.007 46.0533 109.424 45.6514C110.516 45.3135 111.522 44.7428 112.372 43.9785C112.413 43.9363 112.463 43.9028 112.517 43.8798C112.572 43.8568 112.63 43.845 112.689 43.8448C112.748 43.8447 112.807 43.8564 112.861 43.8791C112.916 43.9019 112.965 43.9352 113.007 43.9773C113.048 44.0193 113.081 44.0692 113.103 44.1241C113.125 44.1789 113.136 44.2376 113.135 44.2967C113.134 44.3558 113.122 44.4142 113.098 44.4684C113.075 44.5226 113.04 44.5715 112.998 44.6124C112.046 45.4793 110.915 46.1251 109.684 46.5034C109.019 46.7021 108.329 46.8017 107.635 46.799Z" fill="#262626"/>
<path d="M98.3932 40.0041C98.3038 40.0042 98.2165 39.9773 98.1426 39.9269C98.0687 39.8766 98.0116 39.8052 97.9789 39.722C97.9461 39.6387 97.9391 39.5476 97.9588 39.4603C97.9785 39.3731 98.024 39.2938 98.0894 39.2328L99.2173 38.1802L96.6396 38.2516C96.5215 38.2549 96.407 38.2111 96.3212 38.1298C96.2354 38.0486 96.1853 37.9365 96.1821 37.8184C96.1788 37.7002 96.2226 37.5856 96.3038 37.4997C96.3849 37.4139 96.4969 37.3638 96.615 37.3605L100.37 37.2566C100.46 37.2541 100.549 37.2792 100.625 37.3285C100.701 37.3779 100.76 37.4492 100.794 37.5329C100.828 37.6167 100.836 37.7089 100.817 37.7973C100.798 37.8857 100.752 37.9661 100.686 38.0278L98.697 39.8841C98.6147 39.9613 98.506 40.0043 98.3932 40.0041Z" fill="#262626"/>
<path d="M110.503 32.7421C110.929 32.7421 111.275 32.3963 111.275 31.9698C111.275 31.5433 110.929 31.1976 110.503 31.1976C110.077 31.1976 109.731 31.5433 109.731 31.9698C109.731 32.3963 110.077 32.7421 110.503 32.7421Z" fill="#262626"/>
<path d="M72.5348 25.569H58.7987C55.6436 25.569 52.6176 26.823 50.3865 29.0552C48.1555 31.2874 46.9021 34.3149 46.9021 37.4718C46.9021 40.6286 48.1555 43.6561 50.3865 45.8883C52.6176 48.1205 55.6436 49.3745 58.7987 49.3745H72.5348C72.6873 49.3745 72.8261 49.3745 72.9695 49.3669C73.4911 49.3446 74.011 49.4408 74.4902 49.6483C74.9694 49.8557 75.3954 50.1691 75.7362 50.5648L79.2091 54.6224C79.3062 54.7351 79.4353 54.8153 79.5792 54.8524C79.7232 54.8896 79.875 54.8818 80.0144 54.8301C80.1537 54.7785 80.274 54.6855 80.3591 54.5635C80.4441 54.4416 80.4899 54.2966 80.4903 54.1479V47.7387C80.4918 46.8849 80.8091 46.0619 81.381 45.4283C83.3469 43.2476 84.4338 40.4145 84.4314 37.4779C84.4322 35.9148 84.1253 34.3668 83.5282 32.9224C82.9311 31.478 82.0554 30.1654 80.9513 29.0595C79.8472 27.9537 78.5361 27.0763 77.0931 26.4774C75.65 25.8784 74.1032 25.5698 72.5409 25.569H72.5348Z" fill="white"/>
<path d="M79.763 55.3334C79.7334 55.3334 79.7035 55.3323 79.6736 55.33C79.5181 55.3189 79.3664 55.2771 79.2272 55.207C79.0879 55.1368 78.964 55.0397 78.8625 54.9213L75.3886 50.8622C75.0937 50.5181 74.7243 50.2459 74.3085 50.066C73.8927 49.8862 73.4414 49.8036 72.9889 49.8245C72.8383 49.8326 72.6909 49.8326 72.5347 49.8326H58.7987C55.5221 49.8326 52.3797 48.5303 50.0628 46.2122C47.746 43.8941 46.4443 40.7501 46.4443 37.4719C46.4443 34.1936 47.746 31.0496 50.0628 28.7315C52.3797 26.4134 55.5221 25.1111 58.7987 25.1111H72.5408C74.9279 25.1121 77.2636 25.805 79.2654 27.1061C81.2671 28.4072 82.8493 30.2607 83.8204 32.4424C84.7915 34.6241 85.11 37.0407 84.7373 39.3997C84.3647 41.7587 83.3169 43.9592 81.7206 45.735C81.224 46.2845 80.9486 46.9987 80.9478 47.7395V54.1478C80.9472 54.462 80.8222 54.7632 80.6002 54.9854C80.3781 55.2076 80.0771 55.3328 79.763 55.3334ZM73.1172 48.906C73.6804 48.9045 74.2372 49.0253 74.7492 49.2601C75.2612 49.4949 75.7161 49.838 76.0827 50.2658L79.5566 54.325C79.5798 54.3517 79.6081 54.3737 79.6397 54.3895C79.6714 54.4054 79.7059 54.4148 79.7412 54.4173C79.7768 54.4202 79.8126 54.416 79.8465 54.4047C79.8803 54.3935 79.9116 54.3756 79.9384 54.352C79.9679 54.3266 79.9916 54.2952 80.0078 54.2599C80.0241 54.2245 80.0326 54.1861 80.0327 54.1472V47.7386C80.0336 46.7714 80.393 45.8389 81.0413 45.1214C82.5188 43.477 83.4885 41.4396 83.8332 39.2556C84.1779 37.0715 83.8828 34.8343 82.9836 32.8145C82.0844 30.7946 80.6197 29.0787 78.7664 27.8741C76.9132 26.6695 74.7508 26.0278 72.5408 26.0267L72.535 25.5689V26.0267H58.7987C55.7649 26.0267 52.8553 27.2325 50.71 29.3789C48.5648 31.5252 47.3596 34.4363 47.3596 37.4717C47.3596 40.5071 48.5648 43.4182 50.71 45.5645C52.8553 47.7109 55.7649 48.9167 58.7987 48.9167H72.5347C72.6845 48.9167 72.8138 48.9167 72.945 48.9097C73.0025 48.9072 73.0594 48.906 73.1172 48.906Z" fill="#262626"/>
<path d="M75.4283 34.9492H56.897C56.7757 34.9492 56.6593 34.9009 56.5735 34.8151C56.4877 34.7292 56.4395 34.6128 56.4395 34.4914C56.4395 34.37 56.4877 34.2535 56.5735 34.1677C56.6593 34.0818 56.7757 34.0336 56.897 34.0336H75.4283C75.5497 34.0336 75.6661 34.0818 75.7519 34.1677C75.8377 34.2535 75.8859 34.37 75.8859 34.4914C75.8859 34.6128 75.8377 34.7292 75.7519 34.8151C75.6661 34.9009 75.5497 34.9492 75.4283 34.9492Z" fill="#262626"/>
<path d="M67.2684 40.1057H56.897C56.7757 40.1057 56.6593 40.0574 56.5735 39.9716C56.4877 39.8857 56.4395 39.7693 56.4395 39.6479C56.4395 39.5264 56.4877 39.41 56.5735 39.3241C56.6593 39.2383 56.7757 39.1901 56.897 39.1901H67.2684C67.3898 39.1901 67.5062 39.2383 67.592 39.3241C67.6778 39.41 67.726 39.5264 67.726 39.6479C67.726 39.7693 67.6778 39.8857 67.592 39.9716C67.5062 40.0574 67.3898 40.1057 67.2684 40.1057Z" fill="#262626"/>
<path d="M220.384 147.333C213.94 147.337 207.694 145.101 202.71 141.008C197.727 136.915 194.314 131.218 193.055 124.887C191.795 118.556 192.766 111.983 195.802 106.289C198.838 100.595 203.752 96.1318 209.705 93.66C215.658 91.1881 222.283 90.8606 228.45 92.7333C234.617 94.6061 239.945 98.5631 243.526 103.93C247.107 109.297 248.72 115.742 248.088 122.166C247.457 128.591 244.621 134.597 240.064 139.162C237.486 141.759 234.419 143.819 231.041 145.222C227.663 146.624 224.041 147.342 220.384 147.333ZM220.384 108.065C218.137 108.065 215.94 108.733 214.071 109.984C212.203 111.234 210.746 113.012 209.886 115.092C209.026 117.171 208.801 119.46 209.24 121.668C209.678 123.876 210.76 125.904 212.349 127.496C213.939 129.087 215.963 130.172 218.167 130.611C220.371 131.05 222.656 130.824 224.732 129.963C226.809 129.102 228.583 127.643 229.832 125.771C231.08 123.899 231.747 121.699 231.747 119.447C231.743 116.43 230.544 113.537 228.414 111.403C226.284 109.27 223.396 108.069 220.384 108.065Z" fill="#00979D"/>
<path d="M185.148 62.339C178.904 62.339 173.824 57.2765 173.824 51.0538C173.824 44.8311 178.904 39.7686 185.148 39.7686C191.392 39.7686 196.471 44.831 196.471 51.0538C196.471 57.2766 191.392 62.339 185.148 62.339Z" fill="#F08229"/>
<path d="M207.381 34.7115C207.309 34.7115 207.236 34.7081 207.163 34.7014C206.73 34.6626 206.317 34.503 205.97 34.2406C205.624 33.9782 205.358 33.6236 205.203 33.2172L203.745 29.4022C203.661 29.1847 203.527 28.9904 203.353 28.8359C203.179 28.6813 202.97 28.5709 202.745 28.514L198.791 27.5458C198.37 27.4436 197.986 27.2256 197.682 26.9163C197.378 26.607 197.166 26.2188 197.07 25.7954C196.975 25.372 196.999 24.9302 197.141 24.52C197.283 24.1097 197.536 23.7473 197.872 23.4735L201.041 20.9104C201.222 20.7636 201.365 20.5752 201.458 20.3612C201.551 20.1473 201.591 19.9141 201.575 19.6813L201.263 15.6175C201.229 15.1839 201.318 14.7496 201.518 14.3639C201.719 13.9783 202.024 13.6568 202.398 13.436C202.772 13.2152 203.2 13.104 203.634 13.1151C204.068 13.1261 204.49 13.2589 204.853 13.4984L208.271 15.7314C208.464 15.8598 208.686 15.9385 208.917 15.9606C209.148 15.9826 209.38 15.9473 209.594 15.8577L213.359 14.3067C213.764 14.1341 214.208 14.0798 214.642 14.1501C215.075 14.2203 215.48 14.4123 215.809 14.7037C216.134 14.988 216.371 15.3586 216.494 15.7725C216.616 16.1864 216.619 16.6267 216.502 17.0422L215.446 20.9876C215.386 21.2136 215.382 21.4509 215.433 21.679C215.485 21.9071 215.592 22.1191 215.744 22.2967L218.376 25.4097C218.658 25.7408 218.841 26.1444 218.905 26.5747C218.97 27.005 218.912 27.4447 218.739 27.8439C218.567 28.2431 218.286 28.5857 217.928 28.8329C217.571 29.0802 217.151 29.222 216.717 29.2424L212.645 29.4509C212.413 29.4641 212.187 29.5333 211.987 29.6526C211.788 29.7719 211.62 29.9378 211.498 30.1361L209.359 33.6036C209.151 33.9425 208.86 34.2224 208.514 34.4164C208.168 34.6104 207.778 34.712 207.381 34.7115Z" fill="#00979D"/>
<path d="M197.621 102.091L179.824 110.733C179.268 111.003 178.665 111.16 178.048 111.197C177.432 111.233 176.814 111.147 176.231 110.943C175.647 110.74 175.11 110.423 174.649 110.011C174.188 109.599 173.813 109.101 173.545 108.543L164.917 90.715C164.648 90.1584 164.49 89.5539 164.454 88.9363C164.418 88.3186 164.504 87.6999 164.707 87.1155C164.91 86.5312 165.226 85.9927 165.638 85.531C166.049 85.0692 166.547 84.6933 167.103 84.4247L184.901 75.7828C185.456 75.5127 186.06 75.3551 186.676 75.3189C187.293 75.2828 187.911 75.3689 188.494 75.5723C189.077 75.7757 189.615 76.0924 190.076 76.5043C190.537 76.9161 190.912 77.415 191.18 77.9724L199.807 95.8002C200.345 96.9255 200.417 98.2181 200.008 99.3964C199.598 100.575 198.74 101.543 197.621 102.091Z" fill="white"/>
<path d="M177.778 111.653C177.199 111.653 176.624 111.555 176.078 111.363C175.44 111.142 174.851 110.796 174.347 110.345C173.843 109.894 173.434 109.347 173.143 108.737L164.516 90.91C164.221 90.3005 164.048 89.6385 164.009 88.9622C163.97 88.2858 164.064 87.6083 164.286 86.9684C164.508 86.3285 164.855 85.7389 165.305 85.2333C165.755 84.7277 166.301 84.3161 166.91 84.022L184.706 75.3807C185.315 75.0849 185.975 74.9124 186.651 74.8728C187.326 74.8333 188.002 74.9277 188.641 75.1504C189.28 75.3732 189.868 75.72 190.373 76.1711C190.878 76.6221 191.289 77.1684 191.582 77.7788L200.209 95.6051C200.797 96.8373 200.875 98.2522 200.427 99.5421C199.979 100.832 199.04 101.892 197.816 102.493L180.019 111.135C179.321 111.475 178.554 111.652 177.778 111.653ZM186.948 75.7564C186.306 75.757 185.672 75.9037 185.095 76.1852L167.298 84.8268C166.794 85.0698 166.343 85.41 165.971 85.8278C165.599 86.2457 165.313 86.7331 165.129 87.262C164.945 87.7909 164.867 88.351 164.9 88.9101C164.932 89.4692 165.075 90.0164 165.319 90.5202L173.946 108.348C174.189 108.852 174.528 109.304 174.945 109.677C175.363 110.05 175.849 110.336 176.377 110.521C176.905 110.705 177.464 110.783 178.022 110.75C178.58 110.717 179.127 110.575 179.63 110.33L197.427 101.688C198.439 101.192 199.215 100.315 199.585 99.2483C199.956 98.1818 199.891 97.0119 199.404 95.9931L190.779 78.1677C190.538 77.6628 190.2 77.2109 189.784 76.8382C189.367 76.4654 188.881 76.1793 188.353 75.9965C187.901 75.8378 187.426 75.7566 186.948 75.7562V75.7564Z" fill="#262626"/>
<path d="M194.942 75.5359L184.311 74.8805C183.828 74.8514 183.356 74.7274 182.922 74.5154C182.487 74.3035 182.099 74.0079 181.778 73.6455C181.458 73.283 181.212 72.8609 181.055 72.4032C180.897 71.9455 180.831 71.4612 180.861 70.978C180.89 70.4948 181.014 70.0221 181.225 69.5868C181.437 69.1515 181.732 68.7623 182.094 68.4414C182.456 68.1205 182.877 67.8741 183.334 67.7164C183.791 67.5587 184.274 67.4928 184.757 67.5224L195.388 68.1778C195.871 68.2069 196.343 68.3309 196.777 68.5428C197.212 68.7548 197.6 69.0504 197.921 69.4128C198.241 69.7752 198.487 70.1974 198.644 70.6551C198.802 71.1128 198.868 71.5971 198.838 72.0803C198.81 72.5639 198.687 73.0373 198.476 73.4732C198.265 73.9091 197.97 74.2989 197.608 74.62C197.246 74.9412 196.824 75.1875 196.367 75.3447C195.909 75.5019 195.425 75.5668 194.942 75.5359Z" fill="white"/>
<path d="M195.188 75.991C195.097 75.991 195.006 75.988 194.914 75.982L184.283 75.3267C183.742 75.2938 183.213 75.1545 182.726 74.9169C182.239 74.6792 181.803 74.3477 181.444 73.9415C181.085 73.5352 180.809 73.062 180.633 72.5489C180.456 72.0359 180.382 71.493 180.415 70.9513C180.448 70.4096 180.587 69.8796 180.824 69.3917C181.061 68.9038 181.392 68.4675 181.798 68.1077C182.203 67.7479 182.676 67.4716 183.188 67.2947C183.7 67.1178 184.242 67.0436 184.783 67.0765L195.416 67.7319C196.485 67.7961 197.487 68.2743 198.211 69.0655C198.935 69.8567 199.323 70.8989 199.293 71.9715C199.264 73.0442 198.819 74.0633 198.053 74.8134C197.287 75.5635 196.26 75.9857 195.188 75.9908V75.991ZM184.534 67.9626C183.744 67.9615 182.981 68.2508 182.39 68.7756C182.07 69.0561 181.81 69.3976 181.624 69.7803C181.437 70.163 181.329 70.579 181.306 71.004C181.28 71.4287 181.337 71.8544 181.476 72.2567C181.614 72.6591 181.83 73.0302 182.112 73.3488C182.392 73.6689 182.733 73.9298 183.115 74.1162C183.497 74.3026 183.912 74.4108 184.336 74.4345L194.97 75.0898H194.972C195.396 75.1169 195.821 75.0598 196.222 74.9217C196.624 74.7836 196.995 74.5672 197.313 74.2851C197.631 74.003 197.89 73.6607 198.075 73.2778C198.261 72.895 198.369 72.4792 198.393 72.0544C198.42 71.6297 198.362 71.204 198.224 70.8017C198.085 70.3994 197.869 70.0283 197.588 69.7098C197.308 69.3896 196.967 69.1286 196.585 68.9422C196.203 68.7558 195.787 68.6476 195.363 68.6241L184.73 67.9687C184.664 67.9647 184.599 67.9627 184.535 67.9627L184.534 67.9626Z" fill="#262626"/>
<path d="M187.373 38.7066L196.337 44.2266C198.78 40.1608 199.526 35.295 198.413 30.6824C197.301 26.0697 194.421 22.0813 190.395 19.5804C188.414 18.3489 186.206 17.5281 183.903 17.1666C181.599 16.8052 179.247 16.9104 176.985 17.476C174.714 18.0315 172.577 19.0337 170.697 20.4243C168.818 21.8149 167.233 23.5662 166.035 25.5762L174.999 31.0964C175.488 30.2776 176.133 29.564 176.899 28.9969C177.665 28.4298 178.535 28.0204 179.46 27.7925C180.384 27.5647 181.345 27.5228 182.286 27.6693C183.227 27.8159 184.129 28.1479 184.941 28.6462C186.587 29.6651 187.765 31.2927 188.22 33.1761C188.675 35.0594 188.371 37.0466 187.373 38.7066Z" fill="white"/>
<path d="M196.337 44.6735C196.255 44.6735 196.174 44.6506 196.103 44.6073L187.139 39.0879C187.039 39.0263 186.967 38.9273 186.939 38.8128C186.911 38.6982 186.93 38.5772 186.991 38.4762C187.925 36.9165 188.21 35.0509 187.782 33.2828C187.355 31.5148 186.25 29.9861 184.707 29.0274C183.952 28.5589 183.112 28.2461 182.234 28.1073C181.357 27.9684 180.462 28.0064 179.599 28.2189C178.725 28.4298 177.902 28.8133 177.177 29.3472C176.453 29.881 175.842 30.5543 175.381 31.3277C175.35 31.3781 175.31 31.422 175.263 31.4568C175.215 31.4916 175.161 31.5166 175.104 31.5305C175.047 31.5443 174.988 31.5467 174.929 31.5374C174.871 31.5282 174.816 31.5075 174.766 31.4766L165.801 25.9568C165.701 25.8952 165.629 25.7964 165.602 25.6821C165.574 25.5678 165.592 25.447 165.653 25.3461C166.881 23.2862 168.506 21.4913 170.433 20.0658C172.36 18.6403 174.55 17.6125 176.877 17.0422C179.197 16.462 181.609 16.354 183.971 16.7247C186.333 17.0953 188.597 17.937 190.628 19.1999C194.754 21.7626 197.706 25.8498 198.846 30.5769C199.986 35.3039 199.222 40.2905 196.719 44.4573C196.688 44.5079 196.648 44.5519 196.601 44.5869C196.553 44.6219 196.499 44.6471 196.442 44.661C196.408 44.6693 196.372 44.6735 196.337 44.6735ZM187.973 38.5517L196.182 43.6072C198.423 39.6502 199.048 34.9776 197.925 30.5692C196.803 26.1609 194.02 22.3591 190.16 19.9612C188.229 18.7608 186.078 17.9608 183.833 17.6085C181.588 17.2562 179.295 17.3588 177.091 17.9101C172.77 18.9687 169.027 21.6643 166.65 25.4303L174.86 30.4864C175.928 28.9125 177.543 27.7941 179.39 27.3498C180.367 27.109 181.382 27.0659 182.375 27.2232C183.369 27.3805 184.321 27.735 185.176 28.2658C186.854 29.3085 188.075 30.9492 188.594 32.8577C189.113 34.7661 188.891 36.8007 187.973 38.5517Z" fill="#262626"/>
<path d="M217.153 91.2949L191.913 78.9191L212.852 63.0806L217.153 91.2949Z" fill="white"/>
<path d="M217.153 91.7416C217.085 91.7416 217.018 91.726 216.957 91.696L191.717 79.3204C191.649 79.2868 191.59 79.2362 191.547 79.1735C191.503 79.1107 191.477 79.0378 191.469 78.9618C191.462 78.8858 191.474 78.8092 191.505 78.7393C191.536 78.6694 191.584 78.6086 191.644 78.5625L212.584 62.724C212.645 62.6774 212.718 62.6476 212.794 62.6376C212.871 62.6275 212.949 62.6376 213.02 62.6667C213.092 62.6959 213.155 62.7432 213.203 62.8039C213.25 62.8646 213.282 62.9368 213.293 63.0132L217.594 91.2274C217.604 91.2911 217.6 91.3561 217.582 91.418C217.565 91.4799 217.534 91.5372 217.492 91.5861C217.45 91.6349 217.398 91.6741 217.34 91.701C217.281 91.7278 217.218 91.7418 217.153 91.7417V91.7416ZM192.761 78.8374L216.584 90.5178L212.524 63.888L192.761 78.8374Z" fill="#262626"/>
<path d="M219.956 62.1066C218.294 63.8125 216.985 65.83 216.104 68.0435C215.222 70.257 214.785 72.6231 214.818 75.006C214.85 77.389 215.352 79.7421 216.294 81.9306C217.236 84.1191 218.6 86.0998 220.307 87.7595C222.014 89.4192 224.032 90.7251 226.244 91.6024C228.456 92.4798 230.819 92.9113 233.198 92.8723C235.577 92.8334 237.925 92.3246 240.107 91.3753C242.289 90.426 244.263 89.0547 245.915 87.34L219.956 62.1066Z" fill="white"/>
<path d="M232.936 93.2879C229.294 93.2882 225.733 92.2136 222.697 90.1985C219.662 88.1834 217.286 85.3169 215.867 81.9573C214.448 78.5976 214.049 74.8935 214.719 71.3078C215.389 67.7221 217.099 64.4137 219.635 61.7957C219.676 61.7536 219.725 61.7199 219.778 61.6966C219.832 61.6732 219.89 61.6608 219.949 61.6599C220.007 61.6583 220.066 61.6686 220.12 61.6903C220.175 61.712 220.225 61.7446 220.266 61.7861L246.226 87.0199C246.311 87.1024 246.359 87.2153 246.361 87.3337C246.363 87.4522 246.318 87.5665 246.236 87.6516C244.546 89.4074 242.525 90.8096 240.291 91.7769C238.056 92.7442 235.652 93.2572 233.218 93.2864C233.124 93.2873 233.03 93.2879 232.936 93.2879ZM219.969 62.7426C213.508 69.7622 213.777 80.7323 220.65 87.4043C227.533 94.0856 238.488 94.025 245.28 87.3458L219.969 62.7426Z" fill="#262626"/>
<path d="M196.601 48.4594C196.145 45.4138 196.916 42.3114 198.743 39.8347C200.57 37.3579 203.305 35.7095 206.345 35.2519L217.703 33.5354C220.744 33.0787 223.841 33.8503 226.313 35.6807C228.786 37.511 230.431 40.2501 230.888 43.2956C231.344 46.3413 230.574 49.4436 228.746 51.9204C226.919 54.3972 224.185 56.0456 221.144 56.5031L209.786 58.2196C206.746 58.6763 203.649 57.9046 201.176 56.0743C198.704 54.244 197.058 51.5049 196.601 48.4594Z" fill="white"/>
<path d="M208.06 58.7958C205.023 58.794 202.098 57.6424 199.873 55.5717C197.648 53.5011 196.286 50.6645 196.061 47.6305C195.835 44.5965 196.763 41.5893 198.658 39.2117C200.553 36.834 203.275 35.2617 206.279 34.8099L217.636 33.0934C220.794 32.6186 224.01 33.4197 226.578 35.3205C229.146 37.2213 230.855 40.0661 231.329 43.229C231.803 46.3919 231.003 49.6139 229.106 52.1862C227.208 54.7584 224.368 56.4702 221.211 56.945L209.853 58.6615C209.259 58.7507 208.66 58.7957 208.06 58.7958ZM219.445 33.8515C218.884 33.8517 218.324 33.8937 217.769 33.9772L206.412 35.6936C204.964 35.9112 203.573 36.4123 202.319 37.1683C201.065 37.9242 199.971 38.9203 199.101 40.0995C198.232 41.2787 197.602 42.6181 197.249 44.041C196.895 45.464 196.825 46.9427 197.043 48.3928C197.26 49.8429 197.76 51.2359 198.515 52.4923C199.269 53.7487 200.264 54.8439 201.441 55.7154C202.618 56.5869 203.955 57.2175 205.376 57.5714C206.796 57.9252 208.273 57.9954 209.72 57.7778L221.078 56.0613C223.857 55.6423 226.375 54.1874 228.129 51.9878C229.883 49.7881 230.743 47.006 230.537 44.1985C230.33 41.3909 229.073 38.765 227.016 36.8464C224.96 34.9278 222.256 33.8582 219.445 33.8515Z" fill="#262626"/>
<path d="M175.966 68.3267C175.403 68.3264 174.862 68.1132 174.45 67.7299C174.037 67.3466 173.785 66.8214 173.743 66.2595C173.701 65.6977 173.872 65.1407 174.223 64.7C174.573 64.2594 175.077 63.9677 175.633 63.8834L241.996 53.7697C242.579 53.6851 243.171 53.8348 243.644 54.186C244.117 54.5373 244.432 55.0617 244.521 55.6448C244.61 56.2279 244.464 56.8225 244.117 57.2987C243.77 57.775 243.248 58.0944 242.667 58.1872L176.304 68.3009C176.192 68.318 176.079 68.3266 175.966 68.3267Z" fill="#00979D"/>
<path d="M30.3011 147.465C30.1777 147.479 30.0539 147.443 29.9555 147.366C29.8571 147.289 29.792 147.176 29.7738 147.051L22.225 95.2063C22.2064 95.0785 22.2385 94.9486 22.3142 94.8451C22.3899 94.7417 22.503 94.6733 22.6287 94.6548C22.7544 94.6364 22.8823 94.6695 22.9843 94.7468C23.0864 94.8241 23.1541 94.9394 23.1727 95.0672L30.7216 146.912C30.7308 146.975 30.7277 147.039 30.7124 147.101C30.6971 147.163 30.67 147.222 30.6325 147.273C30.595 147.324 30.548 147.367 30.4941 147.4C30.4401 147.432 30.3803 147.454 30.3181 147.463L30.3011 147.465Z" fill="#262626"/>
<path d="M23.8009 102.847C23.7221 102.856 23.6424 102.844 23.5688 102.814C23.4953 102.784 23.4303 102.735 23.3796 102.673L19.8201 98.3106C19.7389 98.2111 19.6998 98.083 19.7114 97.9545C19.723 97.826 19.7843 97.7076 19.8819 97.6254C19.9796 97.5432 20.1054 97.5039 20.2319 97.5162C20.3584 97.5285 20.475 97.5913 20.5562 97.6908L23.6127 101.437L25.4761 96.9612C25.5 96.9016 25.5353 96.8475 25.58 96.802C25.6248 96.7565 25.6779 96.7205 25.7365 96.6961C25.7951 96.6716 25.8579 96.6593 25.9213 96.6598C25.9847 96.6603 26.0474 96.6736 26.1058 96.6988C26.1642 96.7241 26.2171 96.761 26.2615 96.8071C26.3058 96.8533 26.3408 96.908 26.3642 96.9679C26.3877 97.0279 26.3992 97.0919 26.3982 97.1564C26.3971 97.2208 26.3834 97.2843 26.358 97.3432L24.1888 102.554C24.1568 102.631 24.1059 102.698 24.0409 102.749C23.9759 102.8 23.8991 102.833 23.8178 102.845L23.8009 102.847Z" fill="#262626"/>
<path d="M24.5038 107.698C24.4246 107.707 24.3446 107.695 24.2708 107.665C24.197 107.634 24.1318 107.585 24.0812 107.522L18.9305 101.154C18.8902 101.104 18.8599 101.047 18.8413 100.986C18.8227 100.925 18.8162 100.861 18.8221 100.797C18.828 100.733 18.8462 100.671 18.8758 100.615C18.9053 100.558 18.9455 100.508 18.9942 100.468C19.0428 100.427 19.0989 100.397 19.1592 100.378C19.2195 100.36 19.2828 100.354 19.3455 100.36C19.4083 100.367 19.4692 100.386 19.5247 100.416C19.5803 100.446 19.6294 100.488 19.6693 100.538L24.3154 106.282L27.1387 99.4334C27.1616 99.3725 27.1963 99.3169 27.2407 99.27C27.2851 99.2231 27.3384 99.1858 27.3974 99.1603C27.4564 99.1348 27.5199 99.1217 27.5841 99.1216C27.6482 99.1216 27.7118 99.1347 27.771 99.1601C27.8302 99.1855 27.8838 99.2227 27.9287 99.2696C27.9735 99.3164 28.0086 99.3719 28.032 99.4328C28.0554 99.4936 28.0665 99.5586 28.0647 99.6238C28.0628 99.689 28.0481 99.7531 28.0214 99.8124L24.8918 107.405C24.86 107.482 24.809 107.549 24.7439 107.6C24.6788 107.652 24.6017 107.685 24.5202 107.697L24.5038 107.698Z" fill="#262626"/>
<path d="M25.3169 113.239C25.2381 113.248 25.1584 113.236 25.0849 113.206C25.0114 113.176 24.9463 113.127 24.8956 113.065L18.2233 104.889C18.1446 104.79 18.1075 104.663 18.12 104.536C18.1324 104.409 18.1935 104.292 18.2901 104.211C18.3866 104.129 18.5109 104.09 18.636 104.101C18.7612 104.112 18.8772 104.173 18.9592 104.27L25.1287 111.829L28.8854 102.808C28.9093 102.748 28.9447 102.694 28.9894 102.648C29.0341 102.603 29.0872 102.567 29.1458 102.542C29.2044 102.518 29.2672 102.506 29.3306 102.506C29.394 102.507 29.4567 102.52 29.5151 102.545C29.5735 102.57 29.6264 102.607 29.6708 102.653C29.7151 102.7 29.7501 102.754 29.7735 102.814C29.797 102.874 29.8085 102.938 29.8075 103.003C29.8064 103.067 29.7928 103.131 29.7673 103.19L25.7048 112.946C25.6729 113.023 25.622 113.09 25.5571 113.141C25.4922 113.192 25.4154 113.225 25.3342 113.237L25.3169 113.239Z" fill="#262626"/>
<path d="M26.0907 118.579C26.012 118.587 25.9325 118.576 25.8591 118.546C25.7857 118.515 25.7208 118.467 25.6702 118.405L17.7873 108.753C17.7458 108.703 17.7144 108.647 17.6947 108.585C17.6751 108.524 17.6677 108.459 17.673 108.394C17.6783 108.33 17.6961 108.267 17.7254 108.21C17.7548 108.153 17.795 108.102 17.8439 108.061C17.8927 108.02 17.9491 107.989 18.0099 107.971C18.0706 107.952 18.1345 107.946 18.1977 107.952C18.2609 107.959 18.3223 107.978 18.3781 108.009C18.434 108.04 18.4833 108.082 18.5231 108.133L25.9035 117.169L30.4055 106.382C30.455 106.264 30.549 106.17 30.6667 106.122C30.7844 106.074 30.9163 106.075 31.0332 106.126C31.1502 106.177 31.2426 106.273 31.2903 106.393C31.338 106.513 31.3369 106.647 31.2874 106.765L26.4786 118.287C26.4466 118.363 26.3957 118.43 26.3307 118.481C26.2657 118.532 26.189 118.565 26.1077 118.577C26.1019 118.578 26.0964 118.578 26.0907 118.579Z" fill="#262626"/>
<path d="M75.7548 69.7897C75.6589 69.7898 75.5654 69.7599 75.4875 69.7044L67.9932 64.3825C67.9428 64.3483 67.8997 64.3043 67.8666 64.2533C67.8334 64.2023 67.8109 64.1452 67.8002 64.0855C67.7896 64.0257 67.7911 63.9644 67.8046 63.9052C67.8181 63.846 67.8434 63.7901 67.879 63.7408C67.9146 63.6914 67.9598 63.6496 68.0119 63.6177C68.064 63.5859 68.1219 63.5647 68.1824 63.5554C68.2428 63.5461 68.3045 63.5488 68.3639 63.5635C68.4233 63.5781 68.4791 63.6044 68.5281 63.6407L76.0224 68.9625C76.1016 69.0187 76.1608 69.0984 76.1914 69.1902C76.222 69.2819 76.2224 69.3809 76.1927 69.4729C76.1629 69.5649 76.1045 69.6452 76.0258 69.7021C75.9471 69.759 75.8522 69.7897 75.7548 69.7897Z" fill="#262626"/>
<path d="M68.5516 93.5555C68.4473 93.5558 68.3459 93.5208 68.2643 93.4563C68.1826 93.3918 68.1255 93.3016 68.1023 93.2007C68.0791 93.0997 68.0913 92.9939 68.1367 92.9007C68.1822 92.8075 68.2582 92.7324 68.3524 92.6878L76.6743 88.7344C76.7842 88.6821 76.9107 88.6754 77.0257 88.7156C77.1407 88.7558 77.2349 88.8397 77.2876 88.9488C77.3403 89.0579 77.3471 89.1833 77.3066 89.2974C77.266 89.4116 77.1815 89.505 77.0715 89.5573L68.7497 93.5107C68.6879 93.5401 68.6202 93.5554 68.5516 93.5555Z" fill="#262626"/>
<path d="M64.0153 78.9736C63.8933 78.9772 63.775 78.9326 63.6862 78.8496C63.5974 78.7665 63.5455 78.6519 63.5419 78.5309C63.5384 78.41 63.5833 78.2925 63.667 78.2044C63.7507 78.1164 63.8662 78.0649 63.9882 78.0613L73.1836 77.5139C73.2441 77.5098 73.3049 77.5177 73.3623 77.537C73.4198 77.5563 73.4729 77.5867 73.5184 77.6265C73.564 77.6663 73.6012 77.7146 73.6278 77.7687C73.6545 77.8228 73.6701 77.8816 73.6737 77.9417C73.6774 78.0018 73.669 78.062 73.6491 78.1189C73.6291 78.1757 73.598 78.2281 73.5576 78.273C73.5172 78.3179 73.4682 78.3544 73.4134 78.3804C73.3587 78.4064 73.2993 78.4214 73.2387 78.4246L64.0433 78.972C64.0337 78.9731 64.0244 78.9736 64.0153 78.9736Z" fill="#262626"/>
<path d="M118.504 19.1111L118.444 45.7382C118.934 45.6364 120.791 45.9535 120.972 46.035V21.975H163.976V147.556H166.444V19.1111H118.504Z" fill="#00979D"/>
<path d="M118.444 130.764L118.504 147.235H120.972V130.764H118.444Z" fill="#00979D"/>
<path d="M257.222 147.778C257.11 147.778 257.002 147.732 256.923 147.652C256.843 147.571 256.799 147.462 256.799 147.348V134.125C256.799 134.011 256.843 133.901 256.923 133.821C257.002 133.74 257.11 133.695 257.222 133.695C257.335 133.695 257.443 133.74 257.522 133.821C257.601 133.901 257.646 134.011 257.646 134.125V147.348C257.646 147.462 257.601 147.571 257.522 147.652C257.443 147.732 257.335 147.778 257.222 147.778Z" fill="#262626"/>
<path d="M261.827 133.981H252.617C251.864 133.981 251.142 133.678 250.609 133.138C250.077 132.598 249.778 131.866 249.778 131.102C249.778 130.338 250.077 129.606 250.609 129.066C251.142 128.526 251.864 128.222 252.617 128.222H261.827C262.58 128.222 263.303 128.526 263.835 129.066C264.368 129.606 264.667 130.338 264.667 131.102C264.667 131.866 264.368 132.598 263.835 133.138C263.303 133.678 262.58 133.981 261.827 133.981ZM252.617 130.529C252.467 130.529 252.324 130.589 252.218 130.697C252.112 130.804 252.052 130.95 252.052 131.102C252.052 131.254 252.112 131.4 252.218 131.507C252.324 131.615 252.467 131.675 252.617 131.675H261.827C261.977 131.675 262.121 131.615 262.227 131.507C262.333 131.4 262.392 131.254 262.392 131.102C262.392 130.95 262.333 130.804 262.227 130.697C262.121 130.589 261.977 130.529 261.827 130.529H252.617Z" fill="#F08229"/>
<path d="M261.248 142.133C260.136 142.133 257.51 140.478 256.995 140.147C256.935 140.108 256.885 140.054 256.851 139.991C256.816 139.927 256.798 139.856 256.798 139.784C256.798 139.711 256.816 139.64 256.851 139.577C256.885 139.513 256.935 139.46 256.995 139.421C257.51 139.089 260.136 137.434 261.248 137.434C261.863 137.434 262.452 137.682 262.886 138.122C263.321 138.563 263.565 139.161 263.565 139.784C263.565 140.407 263.321 141.005 262.886 141.445C262.452 141.886 261.863 142.133 261.248 142.133ZM258.032 139.784C259.162 140.466 260.683 141.274 261.248 141.274C261.638 141.274 262.012 141.117 262.287 140.837C262.563 140.558 262.717 140.179 262.717 139.784C262.717 139.389 262.563 139.01 262.287 138.73C262.012 138.451 261.638 138.294 261.248 138.294C260.683 138.294 259.162 139.101 258.032 139.784Z" fill="#262626"/>
<path d="M253.196 142.133C252.582 142.133 251.993 141.886 251.558 141.445C251.124 141.005 250.88 140.407 250.88 139.784C250.88 139.161 251.124 138.563 251.558 138.122C251.993 137.682 252.582 137.434 253.196 137.434C254.308 137.434 256.934 139.089 257.449 139.421C257.51 139.46 257.559 139.513 257.593 139.577C257.628 139.64 257.646 139.711 257.646 139.784C257.646 139.856 257.628 139.927 257.593 139.991C257.559 140.054 257.51 140.108 257.449 140.146C256.934 140.478 254.308 142.133 253.196 142.133ZM253.196 138.294C252.807 138.294 252.433 138.451 252.158 138.731C251.883 139.01 251.728 139.389 251.727 139.784C251.725 139.98 251.762 140.175 251.835 140.356C251.908 140.538 252.016 140.703 252.153 140.842C252.29 140.981 252.452 141.09 252.632 141.165C252.811 141.239 253.003 141.276 253.196 141.274C253.761 141.274 255.282 140.466 256.412 139.784C255.282 139.101 253.762 138.294 253.196 138.294Z" fill="#262626"/>
<path d="M35.9548 147.556C35.8675 147.556 35.782 147.53 35.7083 147.481C35.6345 147.433 35.5756 147.364 35.5383 147.281L34.4886 144.974C34.4363 144.859 34.4301 144.727 34.4712 144.608C34.5124 144.488 34.5975 144.39 34.7079 144.336C34.8183 144.282 34.9449 144.275 35.0598 144.318C35.1748 144.361 35.2688 144.449 35.321 144.564L36.3707 146.872C36.4039 146.945 36.4189 147.025 36.4141 147.106C36.4094 147.187 36.3852 147.265 36.3437 147.333C36.3022 147.401 36.2448 147.457 36.1768 147.496C36.1088 147.535 36.0324 147.556 35.9548 147.556Z" fill="#262626"/>
<path d="M38.4895 147.556C38.4119 147.556 38.3355 147.535 38.2675 147.496C38.1995 147.457 38.1421 147.401 38.1006 147.333C38.0591 147.265 38.0349 147.187 38.0301 147.106C38.0254 147.025 38.0404 146.945 38.0736 146.872L39.1233 144.564C39.1492 144.507 39.1855 144.456 39.2304 144.414C39.2752 144.372 39.3275 144.339 39.3845 144.318C39.4414 144.297 39.5018 144.288 39.5622 144.291C39.6226 144.294 39.6818 144.309 39.7364 144.336C39.7911 144.363 39.8401 144.401 39.8807 144.447C39.9213 144.494 39.9527 144.548 39.9731 144.608C39.9934 144.667 40.0024 144.73 39.9994 144.792C39.9964 144.855 39.9816 144.917 39.9557 144.974L38.906 147.281C38.8687 147.364 38.8098 147.433 38.736 147.481C38.6623 147.53 38.5768 147.556 38.4895 147.556Z" fill="#262626"/>
<path d="M37.2221 147.556C37.1 147.556 36.9829 147.505 36.8966 147.415C36.8102 147.326 36.7617 147.204 36.7617 147.077V144.257C36.7617 144.13 36.8102 144.008 36.8966 143.918C36.9829 143.828 37.1 143.778 37.2221 143.778C37.3442 143.778 37.4613 143.828 37.5477 143.918C37.634 144.008 37.6825 144.13 37.6825 144.257V147.077C37.6825 147.204 37.634 147.326 37.5477 147.415C37.4613 147.505 37.3442 147.556 37.2221 147.556Z" fill="#262626"/>
<path d="M45.6666 151.556C45.4124 151.556 45.2063 151.352 45.2063 151.101V132.738C45.2063 132.487 45.4124 132.284 45.6666 132.284C45.9209 132.284 46.1269 132.487 46.1269 132.738V151.101C46.1269 151.352 45.9209 151.556 45.6666 151.556Z" fill="#262626"/>
<path d="M45.6666 135.921C47.4461 135.921 48.8888 134.496 48.8888 132.738C48.8888 130.98 47.4461 129.556 45.6666 129.556C43.887 129.556 42.4443 130.98 42.4443 132.738C42.4443 134.496 43.887 135.921 45.6666 135.921Z" fill="#F08229"/>
<path d="M263.989 148.039H17.7892C17.5309 148.039 17.3334 147.836 17.3334 147.571C17.3334 147.306 17.5309 147.103 17.7892 147.103H263.989C264.247 147.103 264.444 147.306 264.444 147.571C264.444 147.836 264.247 148.039 263.989 148.039Z" fill="#262626"/>
</svg>
