<svg width="32" height="32" viewBox="0 0 32 32" fill="none" xmlns="http://www.w3.org/2000/svg">
<circle cx="16" cy="16" r="16" fill="#F5F5F5"/>
<path d="M15.4391 9.40137H16.5641C16.6641 9.40137 16.7141 9.45115 16.7141 9.55073V22.6946C16.7141 22.7941 16.6641 22.8439 16.5641 22.8439H15.4391C15.3391 22.8439 15.2891 22.7941 15.2891 22.6946V9.55073C15.2891 9.45115 15.3391 9.40137 15.4391 9.40137Z" fill="#595959"/>
<path d="M9.69688 15.4131H22.2969C22.3969 15.4131 22.4469 15.4629 22.4469 15.5624V16.6827C22.4469 16.7822 22.3969 16.832 22.2969 16.832H9.69688C9.59688 16.832 9.54688 16.7822 9.54688 16.6827V15.5624C9.54688 15.4629 9.59688 15.4131 9.69688 15.4131Z" fill="#595959"/>
</svg>
