<svg width="32" height="32" viewBox="0 0 32 32" fill="none" xmlns="http://www.w3.org/2000/svg">
<path fill-rule="evenodd" clip-rule="evenodd" d="M4.52942 5.54545L1.00001 1L1.00001 4.18307H1V31H28.3529V30.9981H31L26.5882 27.3617V29.1819H2.7647V5.54545H4.52942ZM6.73527 23.7256C7.46624 23.7256 8.0588 23.1151 8.0588 22.362C8.0588 21.6089 7.46624 20.9984 6.73527 20.9984C6.00431 20.9984 5.41174 21.6089 5.41174 22.362C5.41174 23.1151 6.00431 23.7256 6.73527 23.7256ZM10.7059 15.9978C10.7059 16.7509 10.1133 17.3615 9.38237 17.3615C8.6514 17.3615 8.05884 16.7509 8.05884 15.9978C8.05884 15.2447 8.6514 14.6342 9.38237 14.6342C10.1133 14.6342 10.7059 15.2447 10.7059 15.9978ZM12.9118 21.9083C13.6428 21.9083 14.2353 21.2978 14.2353 20.5446C14.2353 19.7915 13.6428 19.181 12.9118 19.181C12.1808 19.181 11.5883 19.7915 11.5883 20.5446C11.5883 21.2978 12.1808 21.9083 12.9118 21.9083ZM22.1765 14.1795C22.1765 14.9326 21.5839 15.5431 20.8529 15.5431C20.122 15.5431 19.5294 14.9326 19.5294 14.1795C19.5294 13.4264 20.122 12.8159 20.8529 12.8159C21.5839 12.8159 22.1765 13.4264 22.1765 14.1795ZM23.5 20.9991C24.2309 20.9991 24.8235 20.3886 24.8235 19.6355C24.8235 18.8824 24.2309 18.2718 23.5 18.2718C22.769 18.2718 22.1765 18.8824 22.1765 19.6355C22.1765 20.3886 22.769 20.9991 23.5 20.9991ZM19.5294 18.7263C19.5294 19.4794 18.9368 20.0899 18.2059 20.0899C17.4749 20.0899 16.8823 19.4794 16.8823 18.7263C16.8823 17.9732 17.4749 17.3627 18.2059 17.3627C18.9368 17.3627 19.5294 17.9732 19.5294 18.7263ZM19.0882 25.544C19.8192 25.544 20.4118 24.9334 20.4118 24.1803C20.4118 23.4272 19.8192 22.8167 19.0882 22.8167C18.3573 22.8167 17.7647 23.4272 17.7647 24.1803C17.7647 24.9334 18.3573 25.544 19.0882 25.544Z" fill="black"/>
</svg>
