<svg width="32" height="32" viewBox="0 0 32 32" fill="none" xmlns="http://www.w3.org/2000/svg">
<g clip-path="url(#clip0_433_21471)">
<path d="M27.3172 4.68628C26.9511 4.32015 26.3575 4.32015 25.9914 4.68628C25.6253 5.0524 25.6253 5.64596 25.9914 6.01209C28.6574 8.67803 30.1256 12.2252 30.1256 16C30.1256 19.7748 28.6574 23.3219 25.9914 25.9878C25.6253 26.3539 25.6253 26.9475 25.9914 27.3137C26.3581 27.6804 26.9517 27.6792 27.3172 27.3137C30.3373 24.2936 32.0006 20.2757 32.0006 16C32.0006 11.7243 30.3373 7.70634 27.3172 4.68628Z" fill="#00979D"/>
<path d="M24.4774 7.52491C24.1112 7.15885 23.5176 7.15885 23.1515 7.52491C22.7855 7.89104 22.7855 8.4846 23.1515 8.85073C25.0599 10.7589 26.1109 13.2979 26.1109 15.9999C26.1109 18.7019 25.0599 21.2409 23.1515 23.1491C22.7854 23.5152 22.7854 24.1088 23.1515 24.4749C23.5175 24.8409 24.1111 24.8411 24.4774 24.4749C26.7399 22.2125 27.9859 19.2027 27.9859 15.9999C27.9859 12.797 26.7398 9.78723 24.4774 7.52491Z" fill="#00979D"/>
<path d="M21.6375 10.3657C21.2714 9.99967 20.6778 9.99967 20.3117 10.3657C19.9456 10.7319 19.9456 11.3255 20.3117 11.6915C21.4617 12.8414 22.095 14.3715 22.095 15.9999C22.095 17.6283 21.4617 19.1584 20.3117 20.3083C19.9456 20.6743 19.9456 21.268 20.3117 21.6341C20.6778 22.0002 21.2713 22.0003 21.6375 21.6341C23.1416 20.13 23.97 18.1291 23.97 15.9999C23.97 13.8706 23.1416 11.8698 21.6375 10.3657Z" fill="#00979D"/>
<path d="M1.875 16.0003C1.875 12.2255 3.34319 8.67837 6.00919 6.01243C6.37531 5.64637 6.37531 5.05274 6.00919 4.68662C5.64313 4.32056 5.04956 4.32049 4.68337 4.68662C1.66325 7.70668 0 11.7246 0 16.0003C0 20.276 1.66325 24.2939 4.68337 27.314C5.04938 27.6801 5.64306 27.6802 6.00919 27.314C6.37531 26.9479 6.37531 26.3543 6.00919 25.9882C3.34319 23.3222 1.875 19.7751 1.875 16.0003Z" fill="#00979D"/>
<path d="M5.88867 16C5.88867 13.298 6.93961 10.7591 8.84798 8.85081C9.21411 8.48469 9.21411 7.89112 8.84798 7.525C8.48192 7.15887 7.8883 7.15894 7.52217 7.525C5.25967 9.78731 4.01367 12.7972 4.01367 16C4.01367 19.2028 5.25967 22.2127 7.52217 24.4751C7.8888 24.8416 8.48236 24.8407 8.84798 24.4751C9.21405 24.1089 9.21405 23.5154 8.84798 23.1492C6.93961 21.241 5.88867 18.702 5.88867 16Z" fill="#00979D"/>
<path d="M11.6896 10.3658C11.3235 9.99972 10.7299 9.99972 10.3637 10.3658C8.85962 11.8699 8.03125 13.8708 8.03125 16.0001C8.03125 18.1293 8.85962 20.1303 10.3637 21.6343C10.7304 22.0009 11.3239 22 11.6896 21.6343C12.0557 21.2682 12.0556 20.6746 11.6896 20.3085C10.5396 19.1587 9.90625 17.6285 9.90625 16.0002C9.90625 14.3718 10.5396 12.8417 11.6896 11.6918C12.0556 11.3256 12.0556 10.732 11.6896 10.3658Z" fill="#00979D"/>
<path d="M16.0008 12.0499C13.8227 12.0499 12.0508 13.8219 12.0508 15.9999C12.0508 18.1779 13.8228 19.9499 16.0008 19.9499C18.1788 19.9499 19.9508 18.1779 19.9508 15.9999C19.9508 13.8219 18.1788 12.0499 16.0008 12.0499Z" fill="#00979D"/>
</g>
<defs>
<clipPath id="clip0_433_21471">
<rect width="32" height="32" fill="white"/>
</clipPath>
</defs>
</svg>
