<svg width="21" height="20" viewBox="0 0 21 20" fill="none" xmlns="http://www.w3.org/2000/svg">
<path d="M16.519 10.7833C16.5524 10.5333 16.569 10.275 16.569 10C16.569 9.73333 16.5524 9.46667 16.5107 9.21667L18.2024 7.9C18.3524 7.78333 18.394 7.55833 18.3024 7.39167L16.7024 4.625C16.6024 4.44167 16.394 4.38333 16.2107 4.44167L14.219 5.24167C13.8024 4.925 13.3607 4.65833 12.869 4.45833L12.569 2.34167C12.5357 2.14167 12.369 2 12.169 2H8.96902C8.76902 2 8.61069 2.14167 8.57735 2.34167L8.27735 4.45833C7.78569 4.65833 7.33569 4.93333 6.92735 5.24167L4.93569 4.44167C4.75235 4.375 4.54402 4.44167 4.44402 4.625L2.85235 7.39167C2.75235 7.56667 2.78569 7.78333 2.95235 7.9L4.64402 9.21667C4.60235 9.46667 4.56902 9.74167 4.56902 10C4.56902 10.2583 4.58569 10.5333 4.62735 10.7833L2.93569 12.1C2.78569 12.2167 2.74402 12.4417 2.83569 12.6083L4.43569 15.375C4.53569 15.5583 4.74402 15.6167 4.92735 15.5583L6.91902 14.7583C7.33569 15.075 7.77735 15.3417 8.26902 15.5417L8.56902 17.6583C8.61069 17.8583 8.76902 18 8.96902 18H12.169C12.369 18 12.5357 17.8583 12.5607 17.6583L12.8607 15.5417C13.3524 15.3417 13.8024 15.075 14.2107 14.7583L16.2024 15.5583C16.3857 15.625 16.594 15.5583 16.694 15.375L18.294 12.6083C18.394 12.425 18.3524 12.2167 18.194 12.1L16.519 10.7833ZM10.569 13C8.91902 13 7.56902 11.65 7.56902 10C7.56902 8.35 8.91902 7 10.569 7C12.219 7 13.569 8.35 13.569 10C13.569 11.65 12.219 13 10.569 13Z" fill="#262626"/>
</svg>
