<svg width="32" height="32" viewBox="0 0 32 32" fill="none" xmlns="http://www.w3.org/2000/svg">
<path fill-rule="evenodd" clip-rule="evenodd" d="M1.00001 1L4.52942 5.54545H2.7647V29.1819H26.5882V27.3617L31 30.9981H28.3529V31H1V4.18307H1.00001L1.00001 1ZM4.52942 20.0904V18.2718V10.9995H9.82354V18.2718V20.0904V27.3627H4.52942V20.0904ZM8.05883 20.0904V25.5446H6.29412V20.0904H8.05883ZM11.5883 13.725H16.8824L16.8824 20.9984L16.8824 22.8159L16.8824 27.362H11.5883V22.8159V20.9984V13.725ZM23.9412 8.27274H18.6471V17.3627H18.647V27.3627H23.9411V17.3636H23.9412V8.27274ZM15.1177 22.8165H13.353V25.5438H15.1177V22.8165ZM20.4117 19.1808H22.1764V25.5445H20.4117V19.1808Z" fill="black"/>
</svg>
