<svg width="12" height="12" viewBox="0 0 12 12" fill="none" xmlns="http://www.w3.org/2000/svg">
<path d="M11.3333 6.66667H0.666667C0.3 6.66667 0 6.96667 0 7.33333V11.3333C0 11.7 0.3 12 0.666667 12H11.3333C11.7 12 12 11.7 12 11.3333V7.33333C12 6.96667 11.7 6.66667 11.3333 6.66667ZM2.66667 10.6667C1.93333 10.6667 1.33333 10.0667 1.33333 9.33333C1.33333 8.6 1.93333 8 2.66667 8C3.4 8 4 8.6 4 9.33333C4 10.0667 3.4 10.6667 2.66667 10.6667ZM11.3333 0H0.666667C0.3 0 0 0.3 0 0.666667V4.66667C0 5.03333 0.3 5.33333 0.666667 5.33333H11.3333C11.7 5.33333 12 5.03333 12 4.66667V0.666667C12 0.3 11.7 0 11.3333 0ZM2.66667 4C1.93333 4 1.33333 3.4 1.33333 2.66667C1.33333 1.93333 1.93333 1.33333 2.66667 1.33333C3.4 1.33333 4 1.93333 4 2.66667C4 3.4 3.4 4 2.66667 4Z" fill="currentColor"/>
</svg>