<svg width="80" height="14" viewBox="0 0 80 14" fill="none" xmlns="http://www.w3.org/2000/svg">
<g clip-path="url(#clip0_1047_62400)">
<path d="M66.6586 0.946776C67.4357 0.397259 68.4335 0.211269 69.3872 0.278902C70.1908 0.354989 70.9591 0.735424 71.4889 1.31876C72.1424 2.06272 72.4338 3.06876 72.3013 4.03252C72.1777 4.86948 71.7803 5.67262 71.118 6.23905C71.6302 6.71248 72.1424 7.21127 72.7958 7.51562C73.1049 7.66779 73.4405 7.76079 73.7849 7.80306C73.5111 8.00596 73.2109 8.18349 72.8841 8.30185C72.3896 8.46248 71.8333 8.47938 71.3476 8.29339C70.5882 8.01441 69.97 7.49025 69.3519 6.99146C69.2636 6.90692 69.1223 6.95765 69.0163 6.95765C68.1156 7.10137 67.1619 6.80547 66.4908 6.23059C65.7843 5.6388 65.3781 4.75112 65.3075 3.86344C65.1662 2.7475 65.7049 1.58929 66.6586 0.946776ZM68.2657 1.28494C67.8684 1.39484 67.5769 1.7161 67.4268 2.07117C67.2502 2.49388 67.2061 2.96731 67.2149 3.41538C67.2061 3.81272 67.2855 4.21006 67.4268 4.58204C67.5593 4.98784 67.7712 5.38518 68.098 5.68108C68.513 6.05306 69.1753 6.11224 69.661 5.85016C70.0054 5.66417 70.182 5.30064 70.2879 4.95402C70.4557 4.39605 70.4204 3.80426 70.3498 3.23784C70.2615 2.76441 70.1378 2.28252 69.8641 1.87673C69.5373 1.37794 68.8574 1.13277 68.2657 1.28494Z" fill="#ED1B23"/>
<path d="M0.615234 0.35498C2.08111 0.35498 3.547 0.35498 5.01288 0.35498C6.24033 3.58445 7.45895 6.81392 8.68641 10.0434C9.71959 7.3888 10.7616 4.74266 11.7948 2.08807C11.8654 1.90208 11.8654 1.68228 11.7771 1.49628C11.5917 1.1074 11.3797 0.735415 11.1678 0.371889C12.2628 0.371889 13.3578 0.371889 14.4528 0.371889C14.285 0.955222 14.0554 1.52165 13.8523 2.09653C12.4041 5.96005 10.947 9.82358 9.48999 13.6871C8.24488 13.4588 6.99976 13.0023 6.04606 12.1738C5.56037 11.7596 5.22481 11.2185 4.97755 10.6521C4.71264 10.0349 4.46538 9.41778 4.20046 8.80063C3.15845 6.2644 2.10761 3.72817 1.05676 1.19194C0.933136 0.904497 0.783016 0.625512 0.615234 0.35498Z" fill="#ED1B23"/>
<path d="M14.9297 0.35498C16.3602 0.35498 17.782 0.35498 19.2125 0.35498C21.5261 3.0772 23.8309 5.80788 26.1446 8.53856C26.1446 6.43348 26.1446 4.31996 26.1446 2.21488C26.1446 1.98662 26.1622 1.733 26.0298 1.5301C25.7737 1.13276 25.4823 0.752323 25.1997 0.371889C26.5773 0.371889 27.9548 0.371889 29.3236 0.371889C28.9968 0.769232 28.6701 1.16657 28.3345 1.56392C28.2374 1.67382 28.2109 1.81754 28.2109 1.95281C28.2109 5.88397 28.2109 9.80667 28.2109 13.7378C27.3632 13.6279 26.4978 13.4673 25.7207 13.1038C25.0231 12.7825 24.4138 12.2837 23.9192 11.7088C21.9942 9.43469 20.0691 7.16054 18.1352 4.89484C18.1352 7.20281 18.1352 9.51078 18.1352 11.8187C18.1264 11.9709 18.1794 12.1146 18.2853 12.2245C18.6121 12.6134 18.9388 13.0108 19.2655 13.4081C17.8879 13.4081 16.5104 13.4081 15.1416 13.4081C15.3624 13.0784 15.592 12.7572 15.8304 12.4444C15.9717 12.2499 16.0953 12.0216 16.0865 11.7765C16.0865 9.78976 16.0865 7.79459 16.0865 5.80788C16.0777 4.56513 16.0953 3.32237 16.0777 2.08807C15.7156 1.49628 15.3094 0.938314 14.9297 0.35498Z" fill="#ED1B23"/>
<path d="M72.5498 0.414059C73.6448 0.414059 74.7487 0.414059 75.8437 0.414059C76.3029 0.405605 76.7885 0.507054 77.1683 0.769132C77.6804 1.11575 77.9277 1.75826 77.8394 2.3416C77.7687 2.69667 77.6009 3.03483 77.3184 3.28C77.1241 3.44908 76.8945 3.57589 76.6649 3.69425C77.0976 4.39594 77.5391 5.10609 77.9718 5.80778C78.2191 6.17131 78.4928 6.52638 78.8284 6.81382C78.2103 6.84763 77.5833 6.93217 76.9651 6.89836C76.7091 6.8899 76.4353 6.79691 76.2852 6.59401C76.0821 6.34039 75.9585 6.04449 75.7907 5.77396C75.4816 5.21599 75.1725 4.65802 74.8635 4.1085C74.8635 4.69184 74.8635 5.27517 74.8635 5.86696C74.8635 6.10367 74.89 6.3573 75.0224 6.56865C75.0931 6.69546 75.2167 6.78 75.3315 6.873C74.4043 6.88145 73.4682 6.88145 72.541 6.873C72.647 6.78 72.7706 6.69546 72.8413 6.5771C72.9561 6.3742 72.9914 6.13749 72.9914 5.91768C72.9914 4.6073 72.9914 3.29691 72.9914 1.97807C72.9825 1.61454 73.0179 1.24256 72.9207 0.887489C72.8589 0.676136 72.7 0.540871 72.5498 0.414059ZM74.8635 1.34401C74.8635 2.08797 74.8635 2.83193 74.8635 3.57589C75.1196 3.52517 75.3756 3.43217 75.5699 3.25464C76.0291 2.84884 76.0998 2.11333 75.7112 1.6399C75.5169 1.40319 75.1725 1.33556 74.8635 1.34401Z" fill="#ED1B23"/>
<path d="M30.0742 0.422504C30.763 0.397142 31.4518 0.422504 32.1317 0.41405C33.5358 0.41405 34.9399 0.41405 36.3439 0.41405C37.227 0.430958 38.1366 0.540862 38.9137 0.963567C39.47 1.26791 39.991 1.68217 40.2912 2.23168C40.6709 2.94183 40.8211 3.76188 40.6974 4.54811C40.6091 5.30898 40.2559 6.04448 39.6731 6.56864C38.9401 7.23651 37.9511 7.57468 36.9798 7.76067C36.6 7.80294 36.2291 7.8283 35.8494 7.86212C35.5227 7.90439 35.196 7.81139 34.8604 7.80294C35.5139 7.54932 36.1144 7.12661 36.4676 6.53482C36.8826 5.85004 36.9444 5.02154 36.8561 4.25221C36.7855 3.71115 36.6 3.14473 36.1585 2.77275C35.77 2.44304 35.2313 2.33313 34.7279 2.32468C34.7191 4.81018 34.7279 7.29569 34.7279 9.78965C34.7279 10.2715 34.7191 10.7534 34.7368 11.2269C34.7721 11.8863 34.9399 12.588 35.4256 13.0868C35.5139 13.1882 35.6552 13.2558 35.6993 13.3826C33.8272 13.3826 31.9551 13.3911 30.083 13.3826C30.2508 13.2389 30.4274 13.1121 30.5599 12.943C30.8955 12.5119 31.0014 11.9539 31.0014 11.4297C31.0014 8.47081 31.0014 5.51188 31.0014 2.56139C31.0014 2.13869 30.9838 1.70753 30.8337 1.30173C30.6835 0.938205 30.3745 0.667673 30.0742 0.422504Z" fill="#005AAA"/>
<path d="M43.0558 0.422517C44.7601 0.405608 46.4644 0.422517 48.1687 0.414062C49.5021 3.7957 50.8356 7.1858 52.169 10.5674C52.4162 11.2184 52.6458 11.8863 53.0962 12.4443C53.317 12.7317 53.5819 12.9853 53.8556 13.2305C53.9086 13.2728 53.9439 13.3235 53.9616 13.3911C51.8423 13.3996 49.7317 13.3911 47.6124 13.3911C47.6124 13.3742 47.6124 13.3319 47.6124 13.315C47.9745 13.1206 48.3453 12.8331 48.4425 12.4189C48.5396 11.9539 48.363 11.4889 48.2129 11.0578C48.0274 10.5252 47.842 10.001 47.6565 9.46841C46.2701 9.46841 44.8926 9.46841 43.5062 9.46841C43.3472 9.90802 43.1794 10.3392 43.0205 10.7788C42.8439 11.2438 42.6849 11.7172 42.6143 12.216C42.5966 12.588 42.8704 12.9008 43.1441 13.1375C43.2236 13.222 43.356 13.2728 43.3825 13.3911C41.952 13.3911 40.5126 13.3911 39.082 13.3911C39.1085 13.2981 39.188 13.2389 39.2586 13.1798C39.6119 12.8754 39.9121 12.5119 40.1152 12.0976C40.3801 11.5397 40.5744 10.9648 40.7775 10.3899C41.6871 7.91285 42.5966 5.44426 43.515 2.9672C43.6828 2.50223 43.8594 2.02034 43.8506 1.52155C43.8152 1.03967 43.4267 0.693048 43.0558 0.422517ZM45.5019 3.6858C45.0339 4.99619 44.5747 6.30657 44.1066 7.61696C45.0604 7.61696 46.0141 7.61696 46.9678 7.61696C46.4732 6.30657 45.9876 4.99619 45.5019 3.6858Z" fill="#005AAA"/>
<path d="M50.9141 0.431062C52.6095 0.414153 54.2962 0.431062 55.9917 0.422607C57.0248 1.98662 58.0492 3.55063 59.0824 5.11464C59.6564 4.3284 60.2392 3.54217 60.822 2.74749C61.0163 2.47696 61.1576 2.17261 61.2547 1.85981C61.343 1.56391 61.3607 1.2342 61.1929 0.96367C61.0516 0.718501 60.8043 0.574781 60.5747 0.431062C62.1819 0.414153 63.7891 0.431062 65.3963 0.422607C63.6919 2.75594 61.9876 5.08927 60.2745 7.42261C60.2392 7.46488 60.2127 7.52406 60.2215 7.57478C60.2215 8.3272 60.2215 9.07116 60.2215 9.82357C60.2215 10.4238 60.2039 11.0325 60.2745 11.6328C60.3628 12.1315 60.5041 12.6472 60.8838 13.0192C60.981 13.146 61.1487 13.2221 61.2017 13.3743C59.2678 13.3743 57.3339 13.3828 55.4 13.3743C55.4265 13.2813 55.5236 13.2475 55.6031 13.1883C55.9298 12.977 56.133 12.6303 56.2301 12.2668C56.3625 11.7765 56.3184 11.2608 56.3272 10.762C56.3184 9.6714 56.3361 8.57237 56.3184 7.48179C55.1086 5.73179 53.8723 3.99869 52.6449 2.25715C52.3535 1.83444 52.0532 1.41174 51.7 1.0313C51.4704 0.803042 51.179 0.625506 50.9141 0.431062Z" fill="#005AAA"/>
</g>
<defs>
<clipPath id="clip0_1047_62400">
<rect width="78.8396" height="14" fill="white" transform="translate(0.306641)"/>
</clipPath>
</defs>
</svg>
