<svg width="24" height="24" viewBox="0 0 24 24" fill="none" xmlns="http://www.w3.org/2000/svg">
<path fill-rule="evenodd" clip-rule="evenodd" d="M12.4352 11.0223L10.5432 9.13025L8.08121 6.66725L6.53021 5.11725L4.70621 3.29325C4.31521 2.90225 3.68221 2.90225 3.29121 3.29325C2.90121 3.68325 2.90121 4.31625 3.29121 4.70725L4.66721 6.08325L6.12821 7.54325L8.36221 9.77725L9.90821 11.3232L12.6472 14.0623L15.4402 16.8553L19.2912 20.7073C19.4872 20.9023 19.7432 21.0002 19.9982 21.0002C20.2542 21.0002 20.5102 20.9023 20.7062 20.7073C21.0962 20.3162 21.0962 19.6832 20.7062 19.2932L12.4352 11.0223ZM11.9987 17.9998C11.4457 17.9998 10.9987 18.4478 10.9987 18.9998C10.9987 19.5518 11.4457 19.9998 11.9987 19.9998C12.5517 19.9998 12.9987 19.5518 12.9987 18.9998C12.9987 18.4478 12.5517 17.9998 11.9987 17.9998ZM11.9983 3.99995C15.6463 3.99995 19.0993 5.39495 21.7233 7.92895C22.1203 8.31195 22.1313 8.94595 21.7483 9.34295C21.5523 9.54595 21.2903 9.64795 21.0293 9.64795C20.7793 9.64795 20.5283 9.55495 20.3343 9.36695C18.0843 7.19595 15.1243 5.99995 11.9983 5.99995C11.0353 5.99995 10.0903 6.12695 9.17431 6.34695L7.55931 4.73195C8.97531 4.25995 10.4673 3.99995 11.9983 3.99995ZM3.82291 6.65255C3.28391 7.04255 2.76091 7.45955 2.27391 7.92855C1.87691 8.31255 1.86591 8.94555 2.24891 9.34255C2.63291 9.74055 3.26791 9.75155 3.66291 9.36755C4.15891 8.88855 4.69491 8.46555 5.25491 8.08355L3.82291 6.65255ZM17.7539 13.4424C17.4919 13.4424 17.2299 13.3405 17.0339 13.1375C16.2419 12.3165 15.2569 11.7115 14.1849 11.3584L11.8359 9.00845C11.861 9.00799 11.886 9.00601 11.9112 9.00403C11.9403 9.00175 11.9694 8.99945 11.9989 8.99945C14.4269 8.99945 16.7869 10.0015 18.4729 11.7474C18.8559 12.1455 18.8459 12.7785 18.4479 13.1615C18.2549 13.3495 18.0039 13.4424 17.7539 13.4424ZM7.43031 10.26C6.73631 10.668 6.08931 11.1621 5.52431 11.748C5.14131 12.1451 5.15231 12.779 5.54931 13.1621C5.94531 13.5461 6.57931 13.535 6.96331 13.137C7.52531 12.555 8.18731 12.088 8.90431 11.734L7.43031 10.26ZM8.50101 16.817C8.11801 16.42 8.12901 15.7871 8.52601 15.4031C9.27801 14.6761 10.225 14.227 11.243 14.0721L13.76 16.59C12.618 15.7751 10.94 15.852 9.91501 16.8411C9.51901 17.2261 8.88501 17.215 8.50101 16.817Z" fill="#F5222D"/>
<mask id="mask0_10283_161568" style="mask-type:luminance" maskUnits="userSpaceOnUse" x="1" y="3" width="22" height="18">
<path fill-rule="evenodd" clip-rule="evenodd" d="M12.4352 11.0223L10.5432 9.13025L8.08121 6.66725L6.53021 5.11725L4.70621 3.29325C4.31521 2.90225 3.68221 2.90225 3.29121 3.29325C2.90121 3.68325 2.90121 4.31625 3.29121 4.70725L4.66721 6.08325L6.12821 7.54325L8.36221 9.77725L9.90821 11.3232L12.6472 14.0623L15.4402 16.8553L19.2912 20.7073C19.4872 20.9023 19.7432 21.0002 19.9982 21.0002C20.2542 21.0002 20.5102 20.9023 20.7062 20.7073C21.0962 20.3162 21.0962 19.6832 20.7062 19.2932L12.4352 11.0223ZM11.9987 17.9998C11.4457 17.9998 10.9987 18.4478 10.9987 18.9998C10.9987 19.5518 11.4457 19.9998 11.9987 19.9998C12.5517 19.9998 12.9987 19.5518 12.9987 18.9998C12.9987 18.4478 12.5517 17.9998 11.9987 17.9998ZM11.9983 3.99995C15.6463 3.99995 19.0993 5.39495 21.7233 7.92895C22.1203 8.31195 22.1313 8.94595 21.7483 9.34295C21.5523 9.54595 21.2903 9.64795 21.0293 9.64795C20.7793 9.64795 20.5283 9.55495 20.3343 9.36695C18.0843 7.19595 15.1243 5.99995 11.9983 5.99995C11.0353 5.99995 10.0903 6.12695 9.17431 6.34695L7.55931 4.73195C8.97531 4.25995 10.4673 3.99995 11.9983 3.99995ZM3.82291 6.65255C3.28391 7.04255 2.76091 7.45955 2.27391 7.92855C1.87691 8.31255 1.86591 8.94555 2.24891 9.34255C2.63291 9.74055 3.26791 9.75155 3.66291 9.36755C4.15891 8.88855 4.69491 8.46555 5.25491 8.08355L3.82291 6.65255ZM17.7539 13.4424C17.4919 13.4424 17.2299 13.3405 17.0339 13.1375C16.2419 12.3165 15.2569 11.7115 14.1849 11.3584L11.8359 9.00845C11.861 9.00799 11.886 9.00601 11.9112 9.00403C11.9403 9.00175 11.9694 8.99945 11.9989 8.99945C14.4269 8.99945 16.7869 10.0015 18.4729 11.7474C18.8559 12.1455 18.8459 12.7785 18.4479 13.1615C18.2549 13.3495 18.0039 13.4424 17.7539 13.4424ZM7.43031 10.26C6.73631 10.668 6.08931 11.1621 5.52431 11.748C5.14131 12.1451 5.15231 12.779 5.54931 13.1621C5.94531 13.5461 6.57931 13.535 6.96331 13.137C7.52531 12.555 8.18731 12.088 8.90431 11.734L7.43031 10.26ZM8.50101 16.817C8.11801 16.42 8.12901 15.7871 8.52601 15.4031C9.27801 14.6761 10.225 14.227 11.243 14.0721L13.76 16.59C12.618 15.7751 10.94 15.852 9.91501 16.8411C9.51901 17.2261 8.88501 17.215 8.50101 16.817Z" fill="white"/>
</mask>
<g mask="url(#mask0_10283_161568)">
</g>
</svg>
