<svg width="16" height="13" viewBox="0 0 16 13" fill="none" xmlns="http://www.w3.org/2000/svg">
<path d="M14 6.33334L15.3333 5.00001C12.8466 2.51334 9.41996 1.56667 6.19996 2.12667L7.91996 3.84667C10.12 3.83334 12.3266 4.66001 14 6.33334ZM12.6666 7.66667C11.9466 6.94667 11.0933 6.43334 10.1866 6.11334L12.2 8.12667L12.6666 7.66667ZM5.99996 10.3333L7.99996 12.3333L9.99996 10.3333C8.89996 9.22667 7.10663 9.22667 5.99996 10.3333ZM2.27329 0.093338L1.33329 1.03334L3.36663 3.06667C2.39329 3.55334 1.47996 4.19334 0.666626 5.00001L1.99996 6.33334C2.81996 5.51334 3.76663 4.89334 4.77996 4.48001L6.27329 5.97334C5.19329 6.26 4.17996 6.82667 3.33329 7.66667L4.66663 9.00001C5.56663 8.10001 6.73996 7.64001 7.92663 7.62667L12.6466 12.3467L13.5866 11.4067L2.27329 0.093338Z" fill="#F5222D"/>
</svg>
